<svg xmlns="http://www.w3.org/2000/svg" xmlns:xlink="http://www.w3.org/1999/xlink" xmlns:lucid="lucid" width="1728" height="976"><g transform="translate(0 0)" lucid:page-tab-id="0_0"><path d="M280 80h880v520H280z" stroke="#000" stroke-width="2" fill="#fff"/><path d="M600 20h240v60H600z" stroke="#000" stroke-opacity="0" stroke-width="2" fill="#fff" fill-opacity="0"/><use xlink:href="#a" transform="matrix(1,0,0,1,605,25) translate(61.35802469135802 29.88888888888889)"/><use xlink:href="#b" transform="matrix(1,0,0,1,605,25) translate(119.75308641975309 29.88888888888889)"/><path d="M64 324c-13.25 0-24-10.75-24-24 0-10.6 6.5-19.55 16.58-22.83C56 246 96 240 112 252c8-18 48-12 48 6 24-6 48 18 32 48 16 24 0 54-32 42-8 15.6-40 15.6-48 0-16 12-48 6-48-24z" stroke="#000" stroke-width="2" fill="#fff"/><use xlink:href="#c" transform="matrix(1,0,0,1,45,245) translate(32.025 58.6)"/><use xlink:href="#d" transform="matrix(1,0,0,1,45,245) translate(88.975 58.6)"/><path d="M1220 695h240v120h-240z" stroke="#000" stroke-width="2" fill="#fff"/><path d="M1220 695h240v60h-240z" stroke="#000" stroke-opacity="0" stroke-width="2" fill="#fff" fill-opacity="0"/><use xlink:href="#e" transform="matrix(1,0,0,1,1225,700) translate(36.25 28.6)"/><use xlink:href="#f" transform="matrix(1,0,0,1,1225,700) translate(102.25 28.6)"/><use xlink:href="#g" transform="matrix(1,0,0,1,1225,700) translate(143.85 28.6)"/><path d="M1360 100h300v440h-300z" stroke="#000" stroke-width="2" fill="#fff"/><path d="M1380 36.67h240V100h-240z" stroke="#000" stroke-opacity="0" stroke-width="2" fill="#fff" fill-opacity="0"/><use xlink:href="#h" transform="matrix(1,0,0,1,1385,41.66666666666668) translate(17.28395061728395 31.444444444444443)"/><use xlink:href="#i" transform="matrix(1,0,0,1,1385,41.66666666666668) translate(80.06172839506172 31.444444444444443)"/><use xlink:href="#j" transform="matrix(1,0,0,1,1385,41.66666666666668) translate(131.41975308641975 31.444444444444443)"/><path d="M1510 541v76.5h-259.33v58.26" stroke="#000" stroke-width="2" fill="none"/><path d="M1511 541h-2v-1h2zM1250.67 690.76l-4.64-14.26h9.27z"/><path d="M1250.67 694l-6.02-18.5h12.03zm-3.26-16.5l3.27 10.03 3.26-10.03z"/><path d="M1220 755h240v60h-240z" stroke="#000" stroke-opacity="0" stroke-width="2" fill="#fff" fill-opacity="0"/><use xlink:href="#k" transform="matrix(1,0,0,1,1225,760) translate(46.57499999999999 28.6)"/><path d="M1415 140h190v100h-190z" stroke="#000" stroke-width="2" fill="#fff"/><use xlink:href="#l" transform="matrix(1,0,0,1,1420,145) translate(53.025 48.6)"/><path d="M1420 360h190v140h-190z" stroke="#000" stroke-width="2" fill="#fff"/><use xlink:href="#m" transform="matrix(1,0,0,1,1425,365) translate(55.575 68.60000000000001)"/><path d="M1280 560h100v40h-100z" stroke="#000" stroke-opacity="0" stroke-width="2" fill="#fff" fill-opacity="0"/><use xlink:href="#n" transform="matrix(1,0,0,1,1285,565) translate(23.725 14.4)"/><use xlink:href="#o" transform="matrix(1,0,0,1,1285,565) translate(14.549999999999997 36)"/><path d="M980 240h160v160H980z" stroke="#000" stroke-width="2" fill="#fff"/><use xlink:href="#p" transform="matrix(1,0,0,1,985,245) translate(-5.825000000000003 78.60000000000001)"/><path d="M1510 241v99.76" stroke="#000" stroke-width="2" fill="none"/><path d="M1511 241h-2v-1h2zM1510 355.76l-4.64-14.26h9.28z"/><path d="M1510 359l-6-18.5h12zm-3.26-16.5l3.26 10.03 3.26-10.03z"/><path d="M1448 270h240v60h-240z" stroke="#000" stroke-opacity="0" stroke-width="2" fill="#fff" fill-opacity="0"/><use xlink:href="#q" transform="matrix(1,0,0,1,1453,275) translate(60.55 28.6)"/><use xlink:href="#r" transform="matrix(1,0,0,1,1453,275) translate(123.5 28.6)"/><path d="M1280 190v.67h115.76" stroke="#000" stroke-width="2" fill="none"/><path d="M1410.76 190.67l-14.26 4.63v-9.27z"/><path d="M1414 190.67l-18.5 6v-12.02zm-16.5 3.26l10.03-3.26-10.03-3.26z"/><path d="M1414 190h-136.5v130h-118.26" stroke="#000" stroke-width="2" fill="none"/><path d="M1415 191h-1v-2h1zM1158.5 324.64l-14.26-4.64 14.26-4.64z"/><path d="M1159.5 326l-18.5-6 18.5-6zm-12.03-6l10.03 3.26v-6.52z"/><path d="M500 700h600v230H500z" stroke="#000" stroke-width="2" fill="#fff"/><path d="M730 655h240v60H730z" stroke="#000" stroke-opacity="0" stroke-width="2" fill="#fff" fill-opacity="0"/><use xlink:href="#s" transform="matrix(1,0,0,1,735,660) translate(54.64999999999999 28.6)"/><use xlink:href="#t" transform="matrix(1,0,0,1,735,660) translate(122.45 28.6)"/><path d="M720 803.7c0 33.14-26.86 60-60 60s-60-26.86-60-60 26.86-60 60-60 60 26.86 60 60z" stroke="#000" stroke-width="2" fill="#fff"/><path d="M620 770h80v67.4h-80z" stroke="#000" stroke-opacity="0" stroke-width="2" fill="#fff" fill-opacity="0"/><use xlink:href="#u" transform="matrix(1,0,0,1,625,775) translate(10.024999999999999 14.4)"/><use xlink:href="#v" transform="matrix(1,0,0,1,625,775) translate(25.525 36)"/><use xlink:href="#w" transform="matrix(1,0,0,1,625,775) translate(18.049999999999997 57.6)"/><path d="M630 715h60v40h-60z" stroke="#000" stroke-opacity="0" stroke-width="2" fill="#fff" fill-opacity="0"/><use xlink:href="#x" transform="matrix(1,0,0,1,635,720) translate(0.5499999999999972 18.6)"/><path d="M1000 804c0 33.14-26.86 60-60 60s-60-26.86-60-60 26.86-60 60-60 60 26.86 60 60z" stroke="#000" stroke-width="2" fill="#fff"/><path d="M900 770.3h80v67.4h-80z" stroke="#000" stroke-opacity="0" stroke-width="2" fill="#fff" fill-opacity="0"/><use xlink:href="#u" transform="matrix(1,0,0,1,905,775.3) translate(10.024999999999999 14.4)"/><use xlink:href="#v" transform="matrix(1,0,0,1,905,775.3) translate(25.525 36)"/><use xlink:href="#w" transform="matrix(1,0,0,1,905,775.3) translate(18.049999999999997 57.6)"/><path d="M910 715h60v40h-60z" stroke="#000" stroke-opacity="0" stroke-width="2" fill="#fff" fill-opacity="0"/><use xlink:href="#x" transform="matrix(1,0,0,1,915,720) translate(0.5499999999999972 18.6)"/><path d="M715.57 828.85H800v.3h66.22" stroke="#000" stroke-width="2" fill="none"/><path d="M715.57 829.85h-1.6l.92-1.9.04-.1h.63zM881.22 829.15l-14.27 4.63v-9.27z"/><path d="M884.45 829.15l-18.5 6v-12zm-16.5 3.26l10.03-3.25-10.03-3.26z"/><path d="M884.45 829.15H800v-.3h-66.2" stroke="#000" stroke-width="2" fill="none"/><path d="M886.04 830.15h-1.6v-2h.64zM733.07 833.48l-14.26-4.63 14.27-4.64z"/><path d="M734.07 834.86l-18.5-6 18.5-6.02zm-12.03-6l10.03 3.25v-6.5z"/><path d="M740 795h100v40H740z" stroke="#000" stroke-opacity="0" stroke-width="2" fill="#fff" fill-opacity="0"/><use xlink:href="#y" transform="matrix(1,0,0,1,745,800) translate(18.05 18.6)"/><path d="M40 700h300v230H40z" stroke="#000" stroke-width="2" fill="#fff"/><use xlink:href="#z" transform="matrix(1,0,0,1,45,705) translate(77.05 113.60000000000001)"/><use xlink:href="#A" transform="matrix(1,0,0,1,45,705) translate(136 113.60000000000001)"/><path d="M499 815h-79v10h-60.76" stroke="#000" stroke-width="2" fill="none"/><path d="M500 816h-1v-2h1zM358.5 829.64L344.24 825l14.26-4.64z"/><path d="M359.5 831l-18.5-6 18.5-6zm-12.03-6l10.03 3.26v-6.52z"/><path d="M341 825h79v-10h60.76" stroke="#000" stroke-width="2" fill="none"/><path d="M341 826h-1v-2h1zM495.76 815l-14.26 4.64v-9.28z"/><path d="M499 815l-18.5 6v-12zm-16.5 3.26l10.03-3.26-10.03-3.26z"/><path d="M300 240h160v160H300z" stroke="#000" stroke-width="2" fill="#fff"/><use xlink:href="#c" transform="matrix(1,0,0,1,305,245) translate(33.55 67.8)"/><use xlink:href="#B" transform="matrix(1,0,0,1,305,245) translate(90.5 67.8)"/><use xlink:href="#C" transform="matrix(1,0,0,1,305,245) translate(31.525 89.4)"/><path d="M299 320h-82.04" stroke="#000" stroke-width="2" fill="none"/><path d="M300 321h-1v-2h1zM216.22 324.64L201.96 320l14.26-4.64z"/><path d="M217.22 326l-18.5-6 18.5-6zm-12.03-6l10.02 3.26v-6.52z"/><path d="M195.73 300h85.03" stroke="#000" stroke-width="2" fill="none"/><path d="M195.73 301h-1.42l.14-.28.57-1.72h.73zM295.76 300l-14.26 4.64v-9.28z"/><path d="M299 300l-18.5 6v-12zm-16.5 3.26l10.03-3.26-10.03-3.26z"/><path d="M560 140h160v160H560z" stroke="#000" stroke-width="2" fill="#fff"/><use xlink:href="#D" transform="matrix(1,0,0,1,565,145) translate(18.825000000000003 78.60000000000001)"/><use xlink:href="#E" transform="matrix(1,0,0,1,565,145) translate(60.425 78.60000000000001)"/><path d="M559 220h-49v100h-30.76" stroke="#000" stroke-width="2" fill="none"/><path d="M560 221h-1v-2h1zM478.5 324.64L464.24 320l14.26-4.64z"/><path d="M479.5 326l-18.5-6 18.5-6zm-12.03-6l10.03 3.26v-6.52z"/><path d="M559 220" stroke="#000" stroke-width="2" fill="none"/><path/><path d="M555.76 220l-14.26 4.64v-9.28z"/><path d="M559 220l-18.5 6v-12zm-16.5 3.26l10.03-3.26-10.03-3.26z"/><path d="M560 380h160v160H560z" stroke="#000" stroke-width="2" fill="#fff"/><use xlink:href="#F" transform="matrix(1,0,0,1,565,385) translate(35.05 67.8)"/><use xlink:href="#G" transform="matrix(1,0,0,1,565,385) translate(90 67.8)"/><use xlink:href="#H" transform="matrix(1,0,0,1,565,385) translate(40.025 89.4)"/><path d="M640 301v59.76" stroke="#000" stroke-width="2" fill="none"/><path d="M641 301h-2v-1h2zM640 375.76l-4.64-14.26h9.28z"/><path d="M640 379l-6-18.5h12zm-3.26-16.5l3.26 10.03 3.26-10.03z"/><path d="M640 541v79h110.67v60.76" stroke="#000" stroke-width="2" fill="none"/><path d="M641 541h-2v-1h2zM750.67 695.76l-4.64-14.26h9.27z"/><path d="M750.67 699l-6.02-18.5h12.03zm-3.26-16.5l3.27 10.03 3.26-10.03z"/><path d="M1250.67 694v-76.5H1510v-58.26" stroke="#000" stroke-width="2" fill="none"/><path d="M1251.67 695h-2v-1h2zM1514.64 558.5h-9.28l4.64-14.26z"/><path d="M1516 559.5h-12l6-18.5zm-9.26-2h6.52l-3.26-10.03z"/><path d="M750.67 699v-79H640v-60.76" stroke="#000" stroke-width="2" fill="none"/><path d="M751.67 700h-2v-1h2zM644.64 558.5h-9.28l4.64-14.26z"/><path d="M646 559.5h-12l6-18.5zm-9.26-2h6.52L640 547.47z"/><path d="M770 260h160v120H770z" stroke="#000" stroke-width="2" fill="#fff"/><g><use xlink:href="#I" transform="matrix(1,0,0,1,775,265) translate(20.075000000000003 47.8)"/><use xlink:href="#J" transform="matrix(1,0,0,1,775,265) translate(70.92500000000001 47.8)"/><use xlink:href="#K" transform="matrix(1,0,0,1,775,265) translate(47.525 69.4)"/></g><path d="M931 320h29.76" stroke="#000" stroke-width="2" fill="none"/><path d="M931 321h-1v-2h1zM975.76 320l-14.26 4.64v-9.28z"/><path d="M979 320l-18.5 6v-12zm-16.5 3.26l10.03-3.26-10.03-3.26z"/><path d="M979 320h-29.76" stroke="#000" stroke-width="2" fill="none"/><path d="M980 321h-1v-2h1zM948.5 324.64L934.24 320l14.26-4.64z"/><path d="M949.5 326l-18.5-6 18.5-6zm-12.03-6l10.03 3.26v-6.52z"/><path d="M850 381v79H739.24" stroke="#000" stroke-width="2" fill="none"/><path d="M851 381h-2v-1h2zM738.5 464.64L724.24 460l14.26-4.64z"/><path d="M739.5 466l-18.5-6 18.5-6zm-12.03-6l10.03 3.26v-6.52z"/><path d="M850 259v-39H739.24" stroke="#000" stroke-width="2" fill="none"/><path d="M851 260h-2v-1h2zM738.5 224.64L724.24 220l14.26-4.64z"/><path d="M739.5 226l-18.5-6 18.5-6zm-12.03-6l10.03 3.26v-6.52z"/><defs><path d="M153-248C145-148 188 4 80 4 36 3 13-21 6-62l32-5c4 25 16 42 43 43 27 0 39-20 39-49v-147H72v-28h81" id="L"/><path d="M141-36C126-15 110 5 73 4 37 3 15-17 15-53c-1-64 63-63 125-63 3-35-9-54-41-54-24 1-41 7-42 31l-33-3c5-37 33-52 76-52 45 0 72 20 72 64v82c-1 20 7 32 28 27v20c-31 9-61-2-59-35zM48-53c0 20 12 33 32 33 41-3 63-29 60-74-43 2-92-5-92 41" id="M"/><path d="M108 0H70L1-190h34L89-25l56-165h34" id="N"/><g id="a"><use transform="matrix(0.06790123456790124,0,0,0.06790123456790124,0,0)" xlink:href="#L"/><use transform="matrix(0.06790123456790124,0,0,0.06790123456790124,12.222222222222223,0)" xlink:href="#M"/><use transform="matrix(0.06790123456790124,0,0,0.06790123456790124,25.802469135802472,0)" xlink:href="#N"/><use transform="matrix(0.06790123456790124,0,0,0.06790123456790124,38.0246913580247,0)" xlink:href="#M"/></g><path d="M205 0l-28-72H64L36 0H1l101-248h38L239 0h-34zm-38-99l-47-123c-12 45-31 82-46 123h93" id="O"/><path d="M30-248c87 1 191-15 191 75 0 78-77 80-158 76V0H30v-248zm33 125c57 0 124 11 124-50 0-59-68-47-124-48v98" id="P"/><g id="b"><use transform="matrix(0.06790123456790124,0,0,0.06790123456790124,0,0)" xlink:href="#O"/><use transform="matrix(0.06790123456790124,0,0,0.06790123456790124,16.296296296296298,0)" xlink:href="#P"/><use transform="matrix(0.06790123456790124,0,0,0.06790123456790124,32.592592592592595,0)" xlink:href="#P"/></g><path d="M185-189c-5-48-123-54-124 2 14 75 158 14 163 119 3 78-121 87-175 55-17-10-28-26-33-46l33-7c5 56 141 63 141-1 0-78-155-14-162-118-5-82 145-84 179-34 5 7 8 16 11 25" id="Q"/><path d="M59-47c-2 24 18 29 38 22v24C64 9 27 4 27-40v-127H5v-23h24l9-43h21v43h35v23H59v120" id="R"/><path d="M100-194c63 0 86 42 84 106H49c0 40 14 67 53 68 26 1 43-12 49-29l28 8c-11 28-37 45-77 45C44 4 14-33 15-96c1-61 26-98 85-98zm52 81c6-60-76-77-97-28-3 7-6 17-6 28h103" id="S"/><path d="M210-169c-67 3-38 105-44 169h-31v-121c0-29-5-50-35-48C34-165 62-65 56 0H25l-1-190h30c1 10-1 24 2 32 10-44 99-50 107 0 11-21 27-35 58-36 85-2 47 119 55 194h-31v-121c0-29-5-49-35-48" id="T"/><g id="c"><use transform="matrix(0.05,0,0,0.05,0,0)" xlink:href="#Q"/><use transform="matrix(0.05,0,0,0.05,12,0)" xlink:href="#R"/><use transform="matrix(0.05,0,0,0.05,17,0)" xlink:href="#S"/><use transform="matrix(0.05,0,0,0.05,27,0)" xlink:href="#M"/><use transform="matrix(0.05,0,0,0.05,37,0)" xlink:href="#T"/></g><path d="M33 0v-248h34V0H33" id="U"/><g id="d"><use transform="matrix(0.05,0,0,0.05,0,0)" xlink:href="#O"/><use transform="matrix(0.05,0,0,0.05,12,0)" xlink:href="#P"/><use transform="matrix(0.05,0,0,0.05,24,0)" xlink:href="#U"/></g><path d="M115-194c55 1 70 41 70 98S169 2 115 4C84 4 66-9 55-30l1 105H24l-1-265h31l2 30c10-21 28-34 59-34zm-8 174c40 0 45-34 45-75s-6-73-45-74c-42 0-51 32-51 76 0 43 10 73 51 73" id="V"/><path d="M96-169c-40 0-48 33-48 73s9 75 48 75c24 0 41-14 43-38l32 2c-6 37-31 61-74 61-59 0-76-41-82-99-10-93 101-131 147-64 4 7 5 14 7 22l-32 3c-4-21-16-35-41-35" id="W"/><path d="M106-169C34-169 62-67 57 0H25v-261h32l-1 103c12-21 28-36 61-36 89 0 53 116 60 194h-32v-121c2-32-8-49-39-48" id="X"/><g id="e"><use transform="matrix(0.05,0,0,0.05,0,0)" xlink:href="#O"/><use transform="matrix(0.05,0,0,0.05,12,0)" xlink:href="#V"/><use transform="matrix(0.05,0,0,0.05,22,0)" xlink:href="#M"/><use transform="matrix(0.05,0,0,0.05,32,0)" xlink:href="#W"/><use transform="matrix(0.05,0,0,0.05,41,0)" xlink:href="#X"/><use transform="matrix(0.05,0,0,0.05,51,0)" xlink:href="#S"/></g><path d="M266 0h-40l-56-210L115 0H75L2-248h35L96-30l15-64 43-154h32l59 218 59-218h35" id="Y"/><path d="M115-194c53 0 69 39 70 98 0 66-23 100-70 100C84 3 66-7 56-30L54 0H23l1-261h32v101c10-23 28-34 59-34zm-8 174c40 0 45-34 45-75 0-40-5-75-45-74-42 0-51 32-51 76 0 43 10 73 51 73" id="Z"/><g id="f"><use transform="matrix(0.05,0,0,0.05,0,0)" xlink:href="#Y"/><use transform="matrix(0.05,0,0,0.05,16.599999999999998,0)" xlink:href="#S"/><use transform="matrix(0.05,0,0,0.05,26.599999999999994,0)" xlink:href="#Z"/></g><path d="M135-143c-3-34-86-38-87 0 15 53 115 12 119 90S17 21 10-45l28-5c4 36 97 45 98 0-10-56-113-15-118-90-4-57 82-63 122-42 12 7 21 19 24 35" id="aa"/><path d="M114-163C36-179 61-72 57 0H25l-1-190h30c1 12-1 29 2 39 6-27 23-49 58-41v29" id="ab"/><g id="g"><use transform="matrix(0.05,0,0,0.05,0,0)" xlink:href="#aa"/><use transform="matrix(0.05,0,0,0.05,9,0)" xlink:href="#S"/><use transform="matrix(0.05,0,0,0.05,19,0)" xlink:href="#ab"/><use transform="matrix(0.05,0,0,0.05,24.95,0)" xlink:href="#N"/><use transform="matrix(0.05,0,0,0.05,33.95,0)" xlink:href="#S"/><use transform="matrix(0.05,0,0,0.05,43.95,0)" xlink:href="#ab"/></g><path d="M212-179c-10-28-35-45-73-45-59 0-87 40-87 99 0 60 29 101 89 101 43 0 62-24 78-52l27 14C228-24 195 4 139 4 59 4 22-46 18-125c-6-104 99-153 187-111 19 9 31 26 39 46" id="ac"/><path d="M24 0v-261h32V0H24" id="ad"/><path d="M24-231v-30h32v30H24zM24 0v-190h32V0H24" id="ae"/><path d="M117-194c89-4 53 116 60 194h-32v-121c0-31-8-49-39-48C34-167 62-67 57 0H25l-1-190h30c1 10-1 24 2 32 11-22 29-35 61-36" id="af"/><g id="h"><use transform="matrix(0.06172839506172839,0,0,0.06172839506172839,0,0)" xlink:href="#ac"/><use transform="matrix(0.06172839506172839,0,0,0.06172839506172839,15.987654320987653,0)" xlink:href="#ad"/><use transform="matrix(0.06172839506172839,0,0,0.06172839506172839,20.864197530864196,0)" xlink:href="#ae"/><use transform="matrix(0.06172839506172839,0,0,0.06172839506172839,25.74074074074074,0)" xlink:href="#S"/><use transform="matrix(0.06172839506172839,0,0,0.06172839506172839,38.08641975308642,0)" xlink:href="#af"/><use transform="matrix(0.06172839506172839,0,0,0.06172839506172839,50.432098765432094,0)" xlink:href="#R"/></g><g id="i"><use transform="matrix(0.06172839506172839,0,0,0.06172839506172839,0,0)" xlink:href="#Y"/><use transform="matrix(0.06172839506172839,0,0,0.06172839506172839,20.493827160493826,0)" xlink:href="#S"/><use transform="matrix(0.06172839506172839,0,0,0.06172839506172839,32.839506172839506,0)" xlink:href="#Z"/></g><path d="M160-131c35 5 61 23 61 61C221 17 115-2 30 0v-248c76 3 177-17 177 60 0 33-19 50-47 57zm-97-11c50-1 110 9 110-42 0-47-63-36-110-37v79zm0 115c55-2 124 14 124-45 0-56-70-42-124-44v89" id="ag"/><path d="M100-194c62-1 85 37 85 99 1 63-27 99-86 99S16-35 15-95c0-66 28-99 85-99zM99-20c44 1 53-31 53-75 0-43-8-75-51-75s-53 32-53 75 10 74 51 75" id="ah"/><path d="M206 0h-36l-40-164L89 0H53L-1-190h32L70-26l43-164h34l41 164 42-164h31" id="ai"/><g id="j"><use transform="matrix(0.06172839506172839,0,0,0.06172839506172839,0,0)" xlink:href="#ag"/><use transform="matrix(0.06172839506172839,0,0,0.06172839506172839,14.814814814814813,0)" xlink:href="#ab"/><use transform="matrix(0.06172839506172839,0,0,0.06172839506172839,22.160493827160494,0)" xlink:href="#ah"/><use transform="matrix(0.06172839506172839,0,0,0.06172839506172839,34.50617283950617,0)" xlink:href="#ai"/><use transform="matrix(0.06172839506172839,0,0,0.06172839506172839,50.49382716049382,0)" xlink:href="#aa"/><use transform="matrix(0.06172839506172839,0,0,0.06172839506172839,61.60493827160494,0)" xlink:href="#S"/><use transform="matrix(0.06172839506172839,0,0,0.06172839506172839,73.95061728395062,0)" xlink:href="#ab"/></g><path d="M33 0v-38h34V0H33" id="aj"/><path d="M24-231v-30h32v30H24zM-9 49c24 4 33-6 33-30v-209h32V24c2 40-23 58-65 49V49" id="ak"/><g id="k"><use transform="matrix(0.05,0,0,0.05,0,0)" xlink:href="#aa"/><use transform="matrix(0.05,0,0,0.05,9,0)" xlink:href="#R"/><use transform="matrix(0.05,0,0,0.05,14,0)" xlink:href="#S"/><use transform="matrix(0.05,0,0,0.05,24,0)" xlink:href="#M"/><use transform="matrix(0.05,0,0,0.05,34,0)" xlink:href="#T"/><use transform="matrix(0.05,0,0,0.05,48.95,0)" xlink:href="#aj"/><use transform="matrix(0.05,0,0,0.05,53.95,0)" xlink:href="#ak"/><use transform="matrix(0.05,0,0,0.05,57.900000000000006,0)" xlink:href="#ab"/><use transform="matrix(0.05,0,0,0.05,63.85,0)" xlink:href="#R"/><use transform="matrix(0.05,0,0,0.05,68.85000000000001,0)" xlink:href="#S"/><use transform="matrix(0.05,0,0,0.05,78.85000000000001,0)" xlink:href="#W"/><use transform="matrix(0.05,0,0,0.05,87.85000000000001,0)" xlink:href="#X"/><use transform="matrix(0.05,0,0,0.05,97.85000000000001,0)" xlink:href="#aa"/><use transform="matrix(0.05,0,0,0.05,106.85000000000001,0)" xlink:href="#aj"/><use transform="matrix(0.05,0,0,0.05,111.85000000000001,0)" xlink:href="#af"/><use transform="matrix(0.05,0,0,0.05,121.85000000000001,0)" xlink:href="#S"/><use transform="matrix(0.05,0,0,0.05,131.85000000000002,0)" xlink:href="#R"/></g><path d="M143 0L79-87 56-68V0H24v-261h32v163l83-92h37l-77 82L181 0h-38" id="al"/><g id="l"><use transform="matrix(0.05,0,0,0.05,0,0)" xlink:href="#Q"/><use transform="matrix(0.05,0,0,0.05,12,0)" xlink:href="#ah"/><use transform="matrix(0.05,0,0,0.05,22,0)" xlink:href="#W"/><use transform="matrix(0.05,0,0,0.05,31,0)" xlink:href="#al"/><use transform="matrix(0.05,0,0,0.05,40,0)" xlink:href="#S"/><use transform="matrix(0.05,0,0,0.05,50,0)" xlink:href="#R"/><use transform="matrix(0.05,0,0,0.05,55,0)" xlink:href="#aj"/><use transform="matrix(0.05,0,0,0.05,60,0)" xlink:href="#ae"/><use transform="matrix(0.05,0,0,0.05,63.95,0)" xlink:href="#ah"/></g><path d="M177-190C167-65 218 103 67 71c-23-6-38-20-44-43l32-5c15 47 100 32 89-28v-30C133-14 115 1 83 1 29 1 15-40 15-95c0-56 16-97 71-98 29-1 48 16 59 35 1-10 0-23 2-32h30zM94-22c36 0 50-32 50-73 0-42-14-75-50-75-39 0-46 34-46 75s6 73 46 73" id="am"/><g id="m"><use transform="matrix(0.05,0,0,0.05,0,0)" xlink:href="#Q"/><use transform="matrix(0.05,0,0,0.05,12,0)" xlink:href="#ae"/><use transform="matrix(0.05,0,0,0.05,15.949999999999998,0)" xlink:href="#am"/><use transform="matrix(0.05,0,0,0.05,25.950000000000003,0)" xlink:href="#T"/><use transform="matrix(0.05,0,0,0.05,40.9,0)" xlink:href="#M"/><use transform="matrix(0.05,0,0,0.05,50.9,0)" xlink:href="#aj"/><use transform="matrix(0.05,0,0,0.05,55.900000000000006,0)" xlink:href="#ak"/><use transform="matrix(0.05,0,0,0.05,59.85,0)" xlink:href="#aa"/></g><path d="M137 0h-34L2-248h35l83 218 83-218h36" id="an"/><g id="n"><use transform="matrix(0.05,0,0,0.05,0,0)" xlink:href="#an"/><use transform="matrix(0.05,0,0,0.05,11.65,0)" xlink:href="#ae"/><use transform="matrix(0.05,0,0,0.05,15.600000000000001,0)" xlink:href="#aa"/><use transform="matrix(0.05,0,0,0.05,24.6,0)" xlink:href="#ae"/><use transform="matrix(0.05,0,0,0.05,28.55,0)" xlink:href="#R"/><use transform="matrix(0.05,0,0,0.05,33.55,0)" xlink:href="#aa"/></g><g id="o"><use transform="matrix(0.05,0,0,0.05,0,0)" xlink:href="#ai"/><use transform="matrix(0.05,0,0,0.05,12.950000000000001,0)" xlink:href="#S"/><use transform="matrix(0.05,0,0,0.05,22.950000000000003,0)" xlink:href="#Z"/><use transform="matrix(0.05,0,0,0.05,32.95,0)" xlink:href="#aa"/><use transform="matrix(0.05,0,0,0.05,41.95,0)" xlink:href="#ae"/><use transform="matrix(0.05,0,0,0.05,45.900000000000006,0)" xlink:href="#R"/><use transform="matrix(0.05,0,0,0.05,50.900000000000006,0)" xlink:href="#S"/></g><path d="M16-82v-28h88v28H16" id="ao"/><g id="p"><use transform="matrix(0.05,0,0,0.05,0,0)" xlink:href="#Q"/><use transform="matrix(0.05,0,0,0.05,12,0)" xlink:href="#ah"/><use transform="matrix(0.05,0,0,0.05,22,0)" xlink:href="#W"/><use transform="matrix(0.05,0,0,0.05,31,0)" xlink:href="#al"/><use transform="matrix(0.05,0,0,0.05,40,0)" xlink:href="#S"/><use transform="matrix(0.05,0,0,0.05,50,0)" xlink:href="#R"/><use transform="matrix(0.05,0,0,0.05,55,0)" xlink:href="#ao"/><use transform="matrix(0.05,0,0,0.05,60.95,0)" xlink:href="#ae"/><use transform="matrix(0.05,0,0,0.05,64.9,0)" xlink:href="#ah"/><use transform="matrix(0.05,0,0,0.05,74.9,0)" xlink:href="#ao"/><use transform="matrix(0.05,0,0,0.05,80.85000000000001,0)" xlink:href="#W"/><use transform="matrix(0.05,0,0,0.05,89.85000000000001,0)" xlink:href="#ad"/><use transform="matrix(0.05,0,0,0.05,93.80000000000001,0)" xlink:href="#ae"/><use transform="matrix(0.05,0,0,0.05,97.75000000000001,0)" xlink:href="#S"/><use transform="matrix(0.05,0,0,0.05,107.75,0)" xlink:href="#af"/><use transform="matrix(0.05,0,0,0.05,117.75,0)" xlink:href="#R"/><use transform="matrix(0.05,0,0,0.05,122.75,0)" xlink:href="#ao"/><use transform="matrix(0.05,0,0,0.05,128.70000000000002,0)" xlink:href="#ak"/><use transform="matrix(0.05,0,0,0.05,132.65,0)" xlink:href="#M"/><use transform="matrix(0.05,0,0,0.05,142.65,0)" xlink:href="#N"/><use transform="matrix(0.05,0,0,0.05,151.65,0)" xlink:href="#M"/></g><path d="M232-93c-1 65-40 97-104 97C67 4 28-28 28-90v-158h33c8 89-33 224 67 224 102 0 64-133 71-224h33v155" id="ap"/><path d="M85-194c31 0 48 13 60 33l-1-100h32l1 261h-30c-2-10 0-23-3-31C134-8 116 4 85 4 32 4 16-35 15-94c0-66 23-100 70-100zm9 24c-40 0-46 34-46 75 0 40 6 74 45 74 42 0 51-32 51-76 0-42-9-74-50-73" id="aq"/><g id="q"><use transform="matrix(0.05,0,0,0.05,0,0)" xlink:href="#ap"/><use transform="matrix(0.05,0,0,0.05,12.950000000000001,0)" xlink:href="#V"/><use transform="matrix(0.05,0,0,0.05,22.950000000000003,0)" xlink:href="#aq"/><use transform="matrix(0.05,0,0,0.05,32.95,0)" xlink:href="#M"/><use transform="matrix(0.05,0,0,0.05,42.95,0)" xlink:href="#R"/><use transform="matrix(0.05,0,0,0.05,47.95,0)" xlink:href="#S"/></g><g id="r"><use transform="matrix(0.05,0,0,0.05,0,0)" xlink:href="#am"/><use transform="matrix(0.05,0,0,0.05,10,0)" xlink:href="#ab"/><use transform="matrix(0.05,0,0,0.05,15.949999999999998,0)" xlink:href="#M"/><use transform="matrix(0.05,0,0,0.05,25.950000000000003,0)" xlink:href="#V"/><use transform="matrix(0.05,0,0,0.05,35.95,0)" xlink:href="#X"/></g><path d="M143 4C61 4 22-44 18-125c-5-107 100-154 193-111 17 8 29 25 37 43l-32 9c-13-25-37-40-76-40-61 0-88 39-88 99 0 61 29 100 91 101 35 0 62-11 79-27v-45h-74v-28h105v86C228-13 192 4 143 4" id="ar"/><g id="s"><use transform="matrix(0.05,0,0,0.05,0,0)" xlink:href="#ar"/><use transform="matrix(0.05,0,0,0.05,14,0)" xlink:href="#ab"/><use transform="matrix(0.05,0,0,0.05,19.95,0)" xlink:href="#S"/><use transform="matrix(0.05,0,0,0.05,29.950000000000003,0)" xlink:href="#T"/><use transform="matrix(0.05,0,0,0.05,44.9,0)" xlink:href="#ad"/><use transform="matrix(0.05,0,0,0.05,48.85,0)" xlink:href="#ae"/><use transform="matrix(0.05,0,0,0.05,52.800000000000004,0)" xlink:href="#af"/></g><g id="t"><use transform="matrix(0.05,0,0,0.05,0,0)" xlink:href="#Q"/><use transform="matrix(0.05,0,0,0.05,12,0)" xlink:href="#S"/><use transform="matrix(0.05,0,0,0.05,22,0)" xlink:href="#ab"/><use transform="matrix(0.05,0,0,0.05,27.950000000000003,0)" xlink:href="#N"/><use transform="matrix(0.05,0,0,0.05,36.95,0)" xlink:href="#S"/><use transform="matrix(0.05,0,0,0.05,46.95,0)" xlink:href="#ab"/></g><path d="M33-154v-36h34v36H33zM33 0v-36h34V0H33" id="as"/><g id="u"><use transform="matrix(0.05,0,0,0.05,0,0)" xlink:href="#af"/><use transform="matrix(0.05,0,0,0.05,10,0)" xlink:href="#M"/><use transform="matrix(0.05,0,0,0.05,20,0)" xlink:href="#T"/><use transform="matrix(0.05,0,0,0.05,34.95,0)" xlink:href="#S"/><use transform="matrix(0.05,0,0,0.05,44.95,0)" xlink:href="#as"/></g><g id="v"><use transform="matrix(0.05,0,0,0.05,0,0)" xlink:href="#ae"/><use transform="matrix(0.05,0,0,0.05,3.95,0)" xlink:href="#aq"/><use transform="matrix(0.05,0,0,0.05,13.949999999999998,0)" xlink:href="#as"/></g><g id="w"><use transform="matrix(0.05,0,0,0.05,0,0)" xlink:href="#ae"/><use transform="matrix(0.05,0,0,0.05,3.95,0)" xlink:href="#T"/><use transform="matrix(0.05,0,0,0.05,18.900000000000002,0)" xlink:href="#am"/><use transform="matrix(0.05,0,0,0.05,28.900000000000002,0)" xlink:href="#as"/></g><path d="M179-190L93 31C79 59 56 82 12 73V49c39 6 53-20 64-50L1-190h34L92-34l54-156h33" id="at"/><g id="x"><use transform="matrix(0.05,0,0,0.05,0,0)" xlink:href="#V"/><use transform="matrix(0.05,0,0,0.05,10,0)" xlink:href="#ad"/><use transform="matrix(0.05,0,0,0.05,13.949999999999998,0)" xlink:href="#M"/><use transform="matrix(0.05,0,0,0.05,23.95,0)" xlink:href="#at"/><use transform="matrix(0.05,0,0,0.05,32.95,0)" xlink:href="#S"/><use transform="matrix(0.05,0,0,0.05,42.95,0)" xlink:href="#ab"/></g><path d="M101-234c-31-9-42 10-38 44h38v23H63V0H32v-167H5v-23h27c-7-52 17-82 69-68v24" id="au"/><g id="y"><use transform="matrix(0.05,0,0,0.05,0,0)" xlink:href="#au"/><use transform="matrix(0.05,0,0,0.05,5,0)" xlink:href="#ab"/><use transform="matrix(0.05,0,0,0.05,10.95,0)" xlink:href="#ae"/><use transform="matrix(0.05,0,0,0.05,14.899999999999999,0)" xlink:href="#S"/><use transform="matrix(0.05,0,0,0.05,24.9,0)" xlink:href="#af"/><use transform="matrix(0.05,0,0,0.05,34.9,0)" xlink:href="#aq"/><use transform="matrix(0.05,0,0,0.05,44.9,0)" xlink:href="#aa"/></g><path d="M197 0v-115H63V0H30v-248h33v105h134v-105h34V0h-34" id="av"/><g id="z"><use transform="matrix(0.05,0,0,0.05,0,0)" xlink:href="#av"/><use transform="matrix(0.05,0,0,0.05,12.950000000000001,0)" xlink:href="#ag"/><use transform="matrix(0.05,0,0,0.05,24.950000000000003,0)" xlink:href="#M"/><use transform="matrix(0.05,0,0,0.05,34.95,0)" xlink:href="#aa"/><use transform="matrix(0.05,0,0,0.05,43.95,0)" xlink:href="#S"/></g><path d="M30-248c118-7 216 8 213 122C240-48 200 0 122 0H30v-248zM63-27c89 8 146-16 146-99s-60-101-146-95v194" id="aw"/><g id="A"><use transform="matrix(0.05,0,0,0.05,0,0)" xlink:href="#aw"/><use transform="matrix(0.05,0,0,0.05,12.950000000000001,0)" xlink:href="#M"/><use transform="matrix(0.05,0,0,0.05,22.950000000000003,0)" xlink:href="#R"/><use transform="matrix(0.05,0,0,0.05,27.950000000000003,0)" xlink:href="#M"/><use transform="matrix(0.05,0,0,0.05,37.95,0)" xlink:href="#Z"/><use transform="matrix(0.05,0,0,0.05,47.95,0)" xlink:href="#M"/><use transform="matrix(0.05,0,0,0.05,57.95,0)" xlink:href="#aa"/><use transform="matrix(0.05,0,0,0.05,66.95,0)" xlink:href="#S"/></g><g id="B"><use transform="matrix(0.05,0,0,0.05,0,0)" xlink:href="#O"/><use transform="matrix(0.05,0,0,0.05,12,0)" xlink:href="#V"/><use transform="matrix(0.05,0,0,0.05,22,0)" xlink:href="#ae"/></g><g id="C"><use transform="matrix(0.05,0,0,0.05,0,0)" xlink:href="#W"/><use transform="matrix(0.05,0,0,0.05,9,0)" xlink:href="#ah"/><use transform="matrix(0.05,0,0,0.05,19,0)" xlink:href="#af"/><use transform="matrix(0.05,0,0,0.05,29,0)" xlink:href="#af"/><use transform="matrix(0.05,0,0,0.05,39,0)" xlink:href="#S"/><use transform="matrix(0.05,0,0,0.05,49,0)" xlink:href="#W"/><use transform="matrix(0.05,0,0,0.05,58,0)" xlink:href="#R"/><use transform="matrix(0.05,0,0,0.05,63,0)" xlink:href="#ae"/><use transform="matrix(0.05,0,0,0.05,66.95,0)" xlink:href="#ah"/><use transform="matrix(0.05,0,0,0.05,76.95,0)" xlink:href="#af"/></g><g id="D"><use transform="matrix(0.05,0,0,0.05,0,0)" xlink:href="#Y"/><use transform="matrix(0.05,0,0,0.05,16.599999999999998,0)" xlink:href="#S"/><use transform="matrix(0.05,0,0,0.05,26.599999999999994,0)" xlink:href="#Z"/></g><g id="E"><use transform="matrix(0.05,0,0,0.05,0,0)" xlink:href="#ac"/><use transform="matrix(0.05,0,0,0.05,12.950000000000001,0)" xlink:href="#ab"/><use transform="matrix(0.05,0,0,0.05,18.900000000000002,0)" xlink:href="#M"/><use transform="matrix(0.05,0,0,0.05,28.900000000000002,0)" xlink:href="#ai"/><use transform="matrix(0.05,0,0,0.05,41.85,0)" xlink:href="#ad"/><use transform="matrix(0.05,0,0,0.05,45.800000000000004,0)" xlink:href="#S"/><use transform="matrix(0.05,0,0,0.05,55.800000000000004,0)" xlink:href="#ab"/><use transform="matrix(0.05,0,0,0.05,61.75,0)" xlink:href="#aa"/></g><g id="F"><use transform="matrix(0.05,0,0,0.05,0,0)" xlink:href="#ar"/><use transform="matrix(0.05,0,0,0.05,14,0)" xlink:href="#ab"/><use transform="matrix(0.05,0,0,0.05,19.95,0)" xlink:href="#M"/><use transform="matrix(0.05,0,0,0.05,29.950000000000003,0)" xlink:href="#V"/><use transform="matrix(0.05,0,0,0.05,39.95,0)" xlink:href="#X"/></g><g id="G"><use transform="matrix(0.05,0,0,0.05,0,0)" xlink:href="#aw"/><use transform="matrix(0.05,0,0,0.05,12.950000000000001,0)" xlink:href="#ag"/></g><g id="H"><use transform="matrix(0.05,0,0,0.05,0,0)" xlink:href="#U"/><use transform="matrix(0.05,0,0,0.05,5,0)" xlink:href="#af"/><use transform="matrix(0.05,0,0,0.05,15,0)" xlink:href="#R"/><use transform="matrix(0.05,0,0,0.05,20,0)" xlink:href="#S"/><use transform="matrix(0.05,0,0,0.05,30,0)" xlink:href="#ab"/><use transform="matrix(0.05,0,0,0.05,35.95,0)" xlink:href="#au"/><use transform="matrix(0.05,0,0,0.05,40.95,0)" xlink:href="#M"/><use transform="matrix(0.05,0,0,0.05,50.95,0)" xlink:href="#W"/><use transform="matrix(0.05,0,0,0.05,59.95,0)" xlink:href="#S"/></g><g id="I"><use transform="matrix(0.05,0,0,0.05,0,0)" xlink:href="#ac"/><use transform="matrix(0.05,0,0,0.05,12.950000000000001,0)" xlink:href="#ad"/><use transform="matrix(0.05,0,0,0.05,16.900000000000002,0)" xlink:href="#ae"/><use transform="matrix(0.05,0,0,0.05,20.85,0)" xlink:href="#S"/><use transform="matrix(0.05,0,0,0.05,30.85,0)" xlink:href="#af"/><use transform="matrix(0.05,0,0,0.05,40.85,0)" xlink:href="#R"/></g><g id="J"><use transform="matrix(0.05,0,0,0.05,0,0)" xlink:href="#W"/><use transform="matrix(0.05,0,0,0.05,9,0)" xlink:href="#ah"/><use transform="matrix(0.05,0,0,0.05,19,0)" xlink:href="#af"/><use transform="matrix(0.05,0,0,0.05,29,0)" xlink:href="#R"/><use transform="matrix(0.05,0,0,0.05,34,0)" xlink:href="#S"/><use transform="matrix(0.05,0,0,0.05,44,0)" xlink:href="#af"/><use transform="matrix(0.05,0,0,0.05,54,0)" xlink:href="#R"/></g><g id="K"><use transform="matrix(0.05,0,0,0.05,0,0)" xlink:href="#au"/><use transform="matrix(0.05,0,0,0.05,5,0)" xlink:href="#S"/><use transform="matrix(0.05,0,0,0.05,15,0)" xlink:href="#R"/><use transform="matrix(0.05,0,0,0.05,20,0)" xlink:href="#W"/><use transform="matrix(0.05,0,0,0.05,29,0)" xlink:href="#X"/><use transform="matrix(0.05,0,0,0.05,39,0)" xlink:href="#S"/><use transform="matrix(0.05,0,0,0.05,49,0)" xlink:href="#ab"/></g></defs></g></svg>