<svg xmlns="http://www.w3.org/2000/svg" xmlns:xlink="http://www.w3.org/1999/xlink" xmlns:lucid="lucid" width="1201" height="446"><g transform="translate(-105 -2130)" lucid:page-tab-id="F76pm8xk11aE"><path d="M1060 2340c0 44.18-35.82 80-80 80s-80-35.82-80-80 35.82-80 80-80 80 35.82 80 80z" stroke="#000" stroke-width="2" fill="#fff"/><path d="M1050 2340c0 38.66-31.34 70-70 70s-70-31.34-70-70 31.34-70 70-70 70 31.34 70 70z" stroke="#000" stroke-width="2" fill="#fff"/><use xlink:href="#a" transform="matrix(1,0,0,1,915,2275) translate(52 68.60000000000001)"/><path d="M790 2480c0 44.18-35.82 80-80 80s-80-35.82-80-80 35.82-80 80-80 80 35.82 80 80z" stroke="#000" stroke-width="2" fill="#fff"/><use xlink:href="#b" transform="matrix(1,0,0,1,635,2405) translate(63.05 78.60000000000001)"/><path d="M520 2320c0 44.18-35.82 80-80 80s-80-35.82-80-80 35.82-80 80-80 80 35.82 80 80z" stroke="#000" stroke-width="2" fill="#fff"/><use xlink:href="#c" transform="matrix(1,0,0,1,365,2245) translate(56.525 78.60000000000001)"/><path d="M260 2320l84.43-.55" stroke="#000" stroke-width="2" fill="none"/><path d="M359.43 2319.35l-14.24 4.73-.07-9.27z" stroke="#000" stroke-width="2"/><path d="M928.58 2277.43l-6.73-8.22-6.73-7.53-6.73-6.95-6.77-6.4-6.8-5.93-6.84-5.5-6.92-5.06-7-4.7-7.1-4.35-7.24-4.03-7.38-3.7-7.55-3.4-7.75-3.13-7.98-2.82-8.24-2.53-8.53-2.24-8.87-1.93-9.25-1.6-9.68-1.28-10.16-.9-10.7-.5-11.34-.05-12.03.45-12.83 1.02-13.74 1.67-14.78 2.43-15.95 3.32-17.3 4.35-18.85 5.6-20.6 7.07-22.6 8.83-24.84 10.94-27.34 13.4-26.74 14.55" stroke="#000" stroke-width="2" fill="none"/><path d="M930 2277.58l-1.25 1-.3.26-.64-.77 1.54-1.28zM526.38 2272.74l-14.68 3.08 10.06-11.12z"/><path d="M527.93 2273.43l-19.04 4 13.04-14.42zm-13.43.78l10.32-2.16-3.24-5.65z"/><path d="M899 2340l-16.12.32-12.7.8-10.55 1.1-9.06 1.33-7.97 1.52-7.14 1.67-6.5 1.8-5.95 1.95-5.54 2.05-5.2 2.18-4.9 2.3-4.68 2.45-4.48 2.6-4.3 2.72-4.2 2.9-4.06 3.1-3.98 3.3-3.92 3.52-3.87 3.8-3.84 4.1-3.83 4.43-3.84 4.84-.5.66" stroke="#000" stroke-width="2" fill="none"/><path d="M900 2340v.98l-.98.02-.04-2 1.05-.02zM765.33 2398.63l-11.78 9.3 4.07-14.44z"/><path d="M767.03 2398.57l-15.28 12.05 5.28-18.73zm-11.68 6.66l8.28-6.53-5.42-3.62z"/><path d="M791 2480l22.78-.43 15.1-.94 11.67-1.22 9.58-1.4 8.17-1.55 7.15-1.67 6.38-1.78 5.76-1.87 5.26-1.96 4.87-2.05 4.54-2.13 4.25-2.23 4-2.32 3.83-2.42 3.63-2.53 3.5-2.65 3.36-2.78 3.25-2.93 3.15-3.1 3.08-3.27 3-3.48 2.96-3.74 2.88-4 .07-.08" stroke="#000" stroke-width="2" fill="none"/><path d="M791.02 2481l-1.05.02.03-1.02v-.98l.98-.02zM937.6 2429.22l-7.97-4.73 11.26-9.92z"/><path d="M938.28 2430.78l-10.35-6.13 14.6-12.85zm-6.96-6.45l5.6 3.33 2.32-10.3z"/><path d="M517.1 2344.93l12.9 4.04 10.83 3.9 9.5 3.9 8.63 3.96 8.1 4.14 7.92 4.47 8.05 5 8.68 5.93 10.28 7.65 15.18 12.38 17.44 15.24" stroke="#000" stroke-width="2" fill="none"/><path d="M517.4 2343.97l-.6 1.9-1-.3.34-.95.28-.96zM645.9 2425.4l-13.8-5.9 6.1-6.97z"/><path d="M648.33 2427.54l-17.9-7.65 7.92-9.07zm-14.57-8.4l9.7 4.14-5.4-9.06z"/><path d="M629 2480l-11.3-.23-10.07-.63-9.1-.96-8.3-1.22-7.64-1.46-7.1-1.66-6.62-1.84-6.22-2.02-5.9-2.2-5.58-2.34-5.35-2.52-5.14-2.68-4.97-2.87-4.8-3.05-4.68-3.25-4.57-3.47-4.48-3.7-4.42-4-4.37-4.26-4.32-4.62-4.32-5-4.3-5.44-4.33-5.95-4.35-6.55-.27-.46" stroke="#000" stroke-width="2" fill="none"/><path d="M630.03 2479.03l-.03.97v.68l.02.35-1.05-.03.06-2zM490.17 2404.7l-8.05 4.6-3.06-14.7z"/><path d="M491.86 2404.87l-10.44 5.97-3.96-19.05zm-9.04 2.87l5.66-3.24-7.8-7.1z"/><path d="M744 2140h52v40h-52z" stroke="#000" stroke-opacity="0" stroke-width="2" fill="#fff" fill-opacity="0"/><use xlink:href="#d" transform="matrix(1,0,0,1,749,2145) translate(16 18.6)"/><path d="M440 2205c0 22.1-17.9 40-40 40s-40-17.9-40-40 17.9-40 40-40 40 17.9 40 40z" stroke="#000" stroke-width="2" fill="#fff"/><path d="M391.16 2165l-.22-1.53.1-.82" stroke="#000" stroke-width="2" fill="none"/><path d="M391.76 2165.8l-.16.12-2.93.77-.5-.67 2.38-1.82z"/><path d="M404.07 2156.4l-10.86 10.35-4-8.36z" stroke="#000" stroke-width="2"/><path d="M308 2165h52v40h-52z" stroke="#000" stroke-opacity="0" stroke-width="2" fill="#fff" fill-opacity="0"/><use xlink:href="#d" transform="matrix(1,0,0,1,313,2169.999999999767) translate(16 18.6)"/><path d="M500 2460h52v40h-52z" stroke="#000" stroke-opacity="0" stroke-width="2" fill="#fff" fill-opacity="0"/><use xlink:href="#d" transform="matrix(1,0,0,1,505,2465) translate(16 18.6)"/><path d="M858 2480h52v40h-52z" stroke="#000" stroke-opacity="0" stroke-width="2" fill="#fff" fill-opacity="0"/><use xlink:href="#e" transform="matrix(1,0,0,1,863,2485) translate(16 18.6)"/><path d="M780 2320h52v40h-52z" stroke="#000" stroke-opacity="0" stroke-width="2" fill="#fff" fill-opacity="0"/><use xlink:href="#e" transform="matrix(1,0,0,1,785,2325) translate(16 18.6)"/><path d="M568 2340h52v40h-52z" stroke="#000" stroke-opacity="0" stroke-width="2" fill="#fff" fill-opacity="0"/><use xlink:href="#e" transform="matrix(1,0,0,1,573,2345) translate(16 18.6)"/><defs><path d="M30 0v-248h187v28H63v79h144v27H63v87h162V0H30" id="f"/><path d="M143 4C61 4 22-44 18-125c-5-107 100-154 193-111 17 8 29 25 37 43l-32 9c-13-25-37-40-76-40-61 0-88 39-88 99 0 61 29 100 91 101 35 0 62-11 79-27v-45h-74v-28h105v86C228-13 192 4 143 4" id="g"/><g id="a"><use transform="matrix(0.05,0,0,0.05,0,0)" xlink:href="#f"/><use transform="matrix(0.05,0,0,0.05,12,0)" xlink:href="#g"/></g><path d="M212-179c-10-28-35-45-73-45-59 0-87 40-87 99 0 60 29 101 89 101 43 0 62-24 78-52l27 14C228-24 195 4 139 4 59 4 22-46 18-125c-6-104 99-153 187-111 19 9 31 26 39 46" id="h"/><path d="M63-220v92h138v28H63V0H30v-248h175v28H63" id="i"/><g id="b"><use transform="matrix(0.05,0,0,0.05,0,0)" xlink:href="#h"/><use transform="matrix(0.05,0,0,0.05,12.950000000000001,0)" xlink:href="#i"/></g><path d="M30-248c118-7 216 8 213 122C240-48 200 0 122 0H30v-248zM63-27c89 8 146-16 146-99s-60-101-146-95v194" id="j"/><path d="M205 0l-28-72H64L36 0H1l101-248h38L239 0h-34zm-38-99l-47-123c-12 45-31 82-46 123h93" id="k"/><path d="M160-131c35 5 61 23 61 61C221 17 115-2 30 0v-248c76 3 177-17 177 60 0 33-19 50-47 57zm-97-11c50-1 110 9 110-42 0-47-63-36-110-37v79zm0 115c55-2 124 14 124-45 0-56-70-42-124-44v89" id="l"/><g id="c"><use transform="matrix(0.05,0,0,0.05,0,0)" xlink:href="#j"/><use transform="matrix(0.05,0,0,0.05,12.950000000000001,0)" xlink:href="#k"/><use transform="matrix(0.05,0,0,0.05,24.950000000000003,0)" xlink:href="#l"/></g><path d="M101-251c68 0 85 55 85 127S166 4 100 4C33 4 14-52 14-124c0-73 17-127 87-127zm-1 229c47 0 54-49 54-102s-4-102-53-102c-51 0-55 48-55 102 0 53 5 102 54 102" id="m"/><use transform="matrix(0.05,0,0,0.05,0,0)" xlink:href="#m" id="d"/><path d="M27 0v-27h64v-190l-56 39v-29l58-41h29v221h61V0H27" id="n"/><use transform="matrix(0.05,0,0,0.05,0,0)" xlink:href="#n" id="e"/></defs></g></svg>