<svg xmlns="http://www.w3.org/2000/svg" xmlns:xlink="http://www.w3.org/1999/xlink" xmlns:lucid="lucid" width="557" height="579"><g transform="translate(-977 -1016)" lucid:page-tab-id="F76pm8xk11aE"><path d="M0 0h1760v2656H0z" fill="#fff"/><path d="M1032.22 1040h80v80h-80zM1032.22 1120h80v80h-80z" stroke="#000" stroke-width="2" fill="#fff"/><use xlink:href="#a" transform="matrix(1,0,0,1,1037.2222222222222,1125.0000000002328) translate(30 39.1)"/><path d="M1032.22 1200h80v80h-80zM1032.22 1280h80v80h-80z" stroke="#000" stroke-width="2" fill="#fff"/><use xlink:href="#b" transform="matrix(1,0,0,1,1037.2222222222222,1285.0000000006985) translate(30 39.1)"/><path d="M1032.22 1360h80v80h-80z" stroke="#000" stroke-width="2" fill="#fff"/><use xlink:href="#a" transform="matrix(1,0,0,1,1037.2222222222222,1365.0000000009313) translate(30 39.1)"/><path d="M1032.22 1440h80v80h-80z" stroke="#000" stroke-width="2" fill="#fff"/><use xlink:href="#b" transform="matrix(1,0,0,1,1037.2222222222222,1445.0000000011642) translate(30 39.1)"/><path d="M1112.22 1280h80v80h-80z" stroke="#000" stroke-width="2" fill="#fff"/><use xlink:href="#b" transform="matrix(1,0,0,1,1117.2222222222222,1285.0000000006985) translate(30 39.1)"/><path d="M1112.22 1360h80v80h-80z" stroke="#000" stroke-width="2" fill="#fff"/><use xlink:href="#a" transform="matrix(1,0,0,1,1117.2222222222222,1365.0000000009313) translate(30 39.1)"/><path d="M1112.22 1440h80v80h-80z" stroke="#000" stroke-width="2" fill="#fff"/><use xlink:href="#b" transform="matrix(1,0,0,1,1117.2222222222222,1445.0000000011642) translate(30 39.1)"/><path d="M1192.22 1280h80v80h-80z" stroke="#000" stroke-width="2" fill="#fff"/><use xlink:href="#b" transform="matrix(1,0,0,1,1197.2222222222222,1285.0000000006985) translate(30 39.1)"/><path d="M1192.22 1360h80v80h-80zM1192.22 1440h80v80h-80z" stroke="#000" stroke-width="2" fill="#fff"/><use xlink:href="#b" transform="matrix(1,0,0,1,1197.2222222222222,1445.0000000011642) translate(30 39.1)"/><path d="M1272.22 1280h80v80h-80z" stroke="#000" stroke-width="2" fill="#fff"/><use xlink:href="#b" transform="matrix(1,0,0,1,1277.2222222222222,1285.0000000006985) translate(30 39.1)"/><path d="M1272.22 1360h80v80h-80z" stroke="#000" stroke-width="2" fill="#fff"/><use xlink:href="#a" transform="matrix(1,0,0,1,1277.2222222222222,1365.0000000009313) translate(30 39.1)"/><path d="M1272.22 1440h80v80h-80z" stroke="#000" stroke-width="2" fill="#fff"/><use xlink:href="#b" transform="matrix(1,0,0,1,1277.2222222222222,1445.0000000011642) translate(30 39.1)"/><path d="M1352.22 1360h80v80h-80z" stroke="#000" stroke-width="2" fill="#fff"/><use xlink:href="#b" transform="matrix(1,0,0,1,1357.2222222222222,1365.0000000009313) translate(30 39.1)"/><path d="M1352.22 1440h80v80h-80zM1432.22 1440h80v80h-80z" stroke="#000" stroke-width="2" fill="#fff"/><use xlink:href="#b" transform="matrix(1,0,0,1,1437.2222222222222,1445.0000000011642) translate(30 39.1)"/><path d="M1112.22 1120h80v80h-80z" stroke="#000" stroke-width="2" fill="#fff"/><use xlink:href="#a" transform="matrix(1,0,0,1,1117.2222222222222,1125.0000000002328) translate(30 39.1)"/><path d="M1112.22 1200h80v80h-80zM1192.22 1200h80v80h-80z" stroke="#000" stroke-width="2" fill="#fff"/><use xlink:href="#a" transform="matrix(1,0,0,1,1197.2222222222222,1205.0000000004657) translate(30 39.1)"/><path d="M1052.22 1540h40v40h-40z" stroke="#000" stroke-opacity="0" stroke-width="2" fill="#fff" fill-opacity="0"/><use xlink:href="#c" transform="matrix(1,0,0,1,1057.2222222222222,1545) translate(6.111111111111111 21.333333333333336)"/><path d="M1132.22 1540h40v40h-40z" stroke="#000" stroke-opacity="0" stroke-width="2" fill="#fff" fill-opacity="0"/><use xlink:href="#d" transform="matrix(1,0,0,1,1137.2222222222222,1545) translate(6.111111111111111 21.333333333333336)"/><path d="M1212.22 1540h40v40h-40z" stroke="#000" stroke-opacity="0" stroke-width="2" fill="#fff" fill-opacity="0"/><use xlink:href="#e" transform="matrix(1,0,0,1,1217.2222222222222,1545) translate(5.4074074074074066 21.333333333333336)"/><path d="M1292.22 1538H1320v42h-27.78z" fill="#fff" fill-opacity="0"/><use xlink:href="#f" transform="matrix(1,0,0,1,1297.2222222222222,1543) translate(0 21.333333333333336)"/><path d="M1378.33 1538h27.78v42h-27.77z" fill="#fff" fill-opacity="0"/><use xlink:href="#g" transform="matrix(1,0,0,1,1383.3333333333333,1543) translate(0 21.333333333333336)"/><path d="M1458.33 1538h27.78v42h-27.77z" fill="#fff" fill-opacity="0"/><use xlink:href="#h" transform="matrix(1,0,0,1,1463.3333333333333,1543) translate(0 21.333333333333336)"/><path d="M992.22 1459H1020v42h-27.78z" fill="#fff" fill-opacity="0"/><use xlink:href="#i" transform="matrix(1,0,0,1,997.2222222222222,1464.0000000012806) translate(0 21.333333333333336)"/><path d="M992.22 1379H1020v42h-27.78z" fill="#fff" fill-opacity="0"/><use xlink:href="#h" transform="matrix(1,0,0,1,997.2222222222222,1384.0000000010477) translate(0 21.333333333333336)"/><path d="M992.22 1299H1020v42h-27.78z" fill="#fff" fill-opacity="0"/><use xlink:href="#g" transform="matrix(1,0,0,1,997.2222222222222,1304.000000000815) translate(0 21.333333333333336)"/><path d="M980 1060h40v40h-40z" stroke="#000" stroke-opacity="0" stroke-width="2" fill="#fff" fill-opacity="0"/><use xlink:href="#d" transform="matrix(1,0,0,1,985,1065.0000000001164) translate(6.111111111111111 21.333333333333336)"/><path d="M980 1141h40v40h-40z" stroke="#000" stroke-opacity="0" stroke-width="2" fill="#fff" fill-opacity="0"/><use xlink:href="#e" transform="matrix(1,0,0,1,985,1146.0000000003492) translate(5.4074074074074066 21.333333333333336)"/><path d="M992.22 1219H1020v42h-27.78z" fill="#fff" fill-opacity="0"/><use xlink:href="#f" transform="matrix(1,0,0,1,997.2222222222222,1224.000000000582) translate(0 21.333333333333336)"/><defs><path d="M101-251c82-7 93 87 43 132L82-64C71-53 59-42 53-27h129V0H18c2-99 128-94 128-182 0-28-16-43-45-43s-46 15-49 41l-32-3c6-41 34-60 81-64" id="j"/><use transform="matrix(0.05,0,0,0.05,0,0)" xlink:href="#j" id="a"/><path d="M27 0v-27h64v-190l-56 39v-29l58-41h29v221h61V0H27" id="k"/><use transform="matrix(0.05,0,0,0.05,0,0)" xlink:href="#k" id="b"/><path d="M205 0l-28-72H64L36 0H1l101-248h38L239 0h-34zm-38-99l-47-123c-12 45-31 82-46 123h93" id="l"/><use transform="matrix(0.07407407407407408,0,0,0.07407407407407408,0,0)" xlink:href="#l" id="c"/><path d="M160-131c35 5 61 23 61 61C221 17 115-2 30 0v-248c76 3 177-17 177 60 0 33-19 50-47 57zm-97-11c50-1 110 9 110-42 0-47-63-36-110-37v79zm0 115c55-2 124 14 124-45 0-56-70-42-124-44v89" id="m"/><use transform="matrix(0.07407407407407408,0,0,0.07407407407407408,0,0)" xlink:href="#m" id="d"/><path d="M212-179c-10-28-35-45-73-45-59 0-87 40-87 99 0 60 29 101 89 101 43 0 62-24 78-52l27 14C228-24 195 4 139 4 59 4 22-46 18-125c-6-104 99-153 187-111 19 9 31 26 39 46" id="n"/><use transform="matrix(0.07407407407407408,0,0,0.07407407407407408,0,0)" xlink:href="#n" id="e"/><path d="M30-248c118-7 216 8 213 122C240-48 200 0 122 0H30v-248zM63-27c89 8 146-16 146-99s-60-101-146-95v194" id="o"/><use transform="matrix(0.07407407407407408,0,0,0.07407407407407408,0,0)" xlink:href="#o" id="f"/><path d="M30 0v-248h187v28H63v79h144v27H63v87h162V0H30" id="p"/><use transform="matrix(0.07407407407407408,0,0,0.07407407407407408,0,0)" xlink:href="#p" id="g"/><path d="M63-220v92h138v28H63V0H30v-248h175v28H63" id="q"/><use transform="matrix(0.07407407407407408,0,0,0.07407407407407408,0,0)" xlink:href="#q" id="h"/><path d="M143 4C61 4 22-44 18-125c-5-107 100-154 193-111 17 8 29 25 37 43l-32 9c-13-25-37-40-76-40-61 0-88 39-88 99 0 61 29 100 91 101 35 0 62-11 79-27v-45h-74v-28h105v86C228-13 192 4 143 4" id="r"/><use transform="matrix(0.07407407407407408,0,0,0.07407407407407408,0,0)" xlink:href="#r" id="i"/></defs></g></svg>