<svg xmlns="http://www.w3.org/2000/svg" xmlns:xlink="http://www.w3.org/1999/xlink" xmlns:lucid="lucid" width="227" height="150"><g transform="translate(-370 -1063)" lucid:page-tab-id="a_9pyKiZSkFJ"><path d="M0 0h1760v1360H0z" fill="#fff"/><path d="M320 1113.4h320v53.2H320z" stroke="#000" stroke-opacity="0" stroke-width="2" fill="#fff" fill-opacity="0"/><use xlink:href="#a" transform="matrix(1,0,0,1,325,1118.4) translate(58.95 25.6)"/><use xlink:href="#b" transform="matrix(1,0,0,1,325,1118.4) translate(86.45 25.6)"/><use xlink:href="#c" transform="matrix(1,0,0,1,325,1118.4) translate(176.45 25.6)"/><g fill="none"><path d="M420 1120v-60h80v60z"/><path d="M500 1120c0-2.76-2.24-5-5-5h-30c-2.76 0-5-2.24-5-5 0 2.76-2.24 5-5 5h-30c-2.76 0-5 2.24-5 5" stroke="#000" stroke-width="2"/></g><path d="M400 1067.5h120v45H400z" stroke="#000" stroke-opacity="0" stroke-width="2" fill="#fff" fill-opacity="0"/><use xlink:href="#d" transform="matrix(1,0,0,1,405,1072.5) translate(50 21.1)"/><g fill="none"><path d="M500 1120v-60h74.65v60z"/><path d="M574.65 1120c0-2.58-2.1-4.67-4.67-4.67h-28c-2.57 0-4.66-2.08-4.66-4.66 0 2.58-2.1 4.66-4.66 4.66h-28c-2.57 0-4.66 2.1-4.66 4.67" stroke="#000" stroke-width="2"/></g><path d="M480 1067.5h116.67v45H480z" stroke="#000" stroke-opacity="0" stroke-width="2" fill="#fff" fill-opacity="0"/><use xlink:href="#d" transform="matrix(1,0,0,1,485,1072.5) translate(48.5 21.1)"/><g fill="none"><path d="M461.85 1160v23.34H420V1160z"/><path d="M420 1160c0 1.44 1.17 2.62 2.62 2.62h15.7c1.44 0 2.6 1.17 2.6 2.6 0-1.43 1.18-2.6 2.62-2.6h15.7c1.44 0 2.6-1.18 2.6-2.62" stroke="#000" stroke-width="2"/></g><g fill="none"><path d="M490 1161.67v20h-20v-20z"/><path d="M470 1161.67c0 .7.56 1.25 1.25 1.25h7.5c.7 0 1.25.56 1.25 1.25 0-.7.56-1.25 1.25-1.25h7.5c.7 0 1.25-.56 1.25-1.25" stroke="#000" stroke-width="2"/></g><g fill="none"><path d="M575 1160v20h-75v-20z"/><path d="M500 1160c0 2.6 2.1 4.7 4.7 4.7h28.12c2.58 0 4.68 2.1 4.68 4.68 0-2.6 2.1-4.7 4.7-4.7h28.12c2.6 0 4.7-2.1 4.7-4.68" stroke="#000" stroke-width="2"/></g><path d="M424.68 1161.67h32.5v40h-32.5z" stroke="#000" stroke-opacity="0" stroke-width="2" fill="#fff" fill-opacity="0"/><use xlink:href="#e" transform="matrix(1,0,0,1,429.6782789598826,1166.6688863873574) translate(7 18.6)"/><path d="M463.75 1161.67h32.5v40h-32.5z" stroke="#000" stroke-opacity="0" stroke-width="2" fill="#fff" fill-opacity="0"/><use xlink:href="#f" transform="matrix(1,0,0,1,468.7516647904995,1166.6688863873574) translate(7 18.6)"/><path d="M515 1161.67h32.5v40H515z" stroke="#000" stroke-opacity="0" stroke-width="2" fill="#fff" fill-opacity="0"/><g><use xlink:href="#g" transform="matrix(1,0,0,1,520.0066591620348,1166.6688863873574) translate(7 18.6)"/></g><defs><path d="M185-189c-5-48-123-54-124 2 14 75 158 14 163 119 3 78-121 87-175 55-17-10-28-26-33-46l33-7c5 56 141 63 141-1 0-78-155-14-162-118-5-82 145-84 179-34 5 7 8 16 11 25" id="h"/><path d="M18-150v-26h174v26H18zm0 90v-26h174v26H18" id="i"/><g id="a"><use transform="matrix(0.05,0,0,0.05,0,0)" xlink:href="#h"/><use transform="matrix(0.05,0,0,0.05,12,0)" xlink:href="#i"/></g><path d="M101-251c68 0 85 55 85 127S166 4 100 4C33 4 14-52 14-124c0-73 17-127 87-127zm-1 229c47 0 54-49 54-102s-4-102-53-102c-51 0-55 48-55 102 0 53 5 102 54 102" id="j"/><path d="M33 0v-38h34V0H33" id="k"/><g id="b"><use transform="matrix(0.05,0,0,0.05,0,0)" xlink:href="#j"/><use transform="matrix(0.05,0,0,0.05,10,0)" xlink:href="#j"/><use transform="matrix(0.05,0,0,0.05,20,0)" xlink:href="#j"/><use transform="matrix(0.05,0,0,0.05,30,0)" xlink:href="#k"/><use transform="matrix(0.05,0,0,0.05,35,0)" xlink:href="#k"/><use transform="matrix(0.05,0,0,0.05,40,0)" xlink:href="#k"/><use transform="matrix(0.05,0,0,0.05,45,0)" xlink:href="#k"/><use transform="matrix(0.05,0,0,0.05,50,0)" xlink:href="#j"/><use transform="matrix(0.05,0,0,0.05,60,0)" xlink:href="#j"/><use transform="matrix(0.05,0,0,0.05,70,0)" xlink:href="#j"/></g><path d="M27 0v-27h64v-190l-56 39v-29l58-41h29v221h61V0H27" id="l"/><g id="c"><use transform="matrix(0.05,0,0,0.05,0,0)" xlink:href="#l"/><use transform="matrix(0.05,0,0,0.05,8.65,0)" xlink:href="#l"/><use transform="matrix(0.05,0,0,0.05,17.3,0)" xlink:href="#l"/><use transform="matrix(0.05,0,0,0.05,27.3,0)" xlink:href="#k"/><use transform="matrix(0.05,0,0,0.05,32.3,0)" xlink:href="#k"/><use transform="matrix(0.05,0,0,0.05,37.3,0)" xlink:href="#k"/><use transform="matrix(0.05,0,0,0.05,42.3,0)" xlink:href="#k"/><use transform="matrix(0.05,0,0,0.05,47.3,0)" xlink:href="#l"/><use transform="matrix(0.05,0,0,0.05,55.94999999999999,0)" xlink:href="#l"/><use transform="matrix(0.05,0,0,0.05,64.6,0)" xlink:href="#l"/></g><path d="M115-194c55 1 70 41 70 98S169 2 115 4C84 4 66-9 55-30l1 105H24l-1-265h31l2 30c10-21 28-34 59-34zm-8 174c40 0 45-34 45-75s-6-73-45-74c-42 0-51 32-51 76 0 43 10 73 51 73" id="m"/><use transform="matrix(0.05,0,0,0.05,0,0)" xlink:href="#m" id="d"/><path d="M141 0L90-78 38 0H4l68-98-65-92h35l48 74 47-74h35l-64 92 68 98h-35" id="n"/><use transform="matrix(0.05,0,0,0.05,0,0)" xlink:href="#n" id="e"/><path d="M179-190L93 31C79 59 56 82 12 73V49c39 6 53-20 64-50L1-190h34L92-34l54-156h33" id="o"/><use transform="matrix(0.05,0,0,0.05,0,0)" xlink:href="#o" id="f"/><path d="M9 0v-24l116-142H16v-24h144v24L44-24h123V0H9" id="p"/><use transform="matrix(0.05,0,0,0.05,0,0)" xlink:href="#p" id="g"/></defs></g></svg>