<svg xmlns="http://www.w3.org/2000/svg" xmlns:xlink="http://www.w3.org/1999/xlink" xmlns:lucid="lucid" width="567" height="581"><g transform="translate(-94 -1012)" lucid:page-tab-id="F76pm8xk11aE"><path d="M0 0h1760v2656H0z" fill="#fff"/><path d="M160 1040h80v80h-80zM160 1120h80v80h-80zM160 1200h80v80h-80zM160 1280h80v80h-80z" stroke="#000" stroke-width="2" fill="#fff"/><use xlink:href="#a" transform="matrix(1,0,0,1,165,1285.0000000006985) translate(30 39.1)"/><path d="M160 1360h80v80h-80zM160 1440h80v80h-80z" stroke="#000" stroke-width="2" fill="#fff"/><use xlink:href="#a" transform="matrix(1,0,0,1,165,1445.0000000011642) translate(30 39.1)"/><path d="M240 1280h80v80h-80z" stroke="#000" stroke-width="2" fill="#fff"/><use xlink:href="#a" transform="matrix(1,0,0,1,245,1285.0000000006985) translate(30 39.1)"/><path d="M240 1360h80v80h-80zM240 1440h80v80h-80z" stroke="#000" stroke-width="2" fill="#fff"/><use xlink:href="#a" transform="matrix(1,0,0,1,245,1445.0000000011642) translate(30 39.1)"/><path d="M320 1280h80v80h-80z" stroke="#000" stroke-width="2" fill="#fff"/><use xlink:href="#a" transform="matrix(1,0,0,1,325,1285.0000000006985) translate(30 39.1)"/><path d="M320 1360h80v80h-80zM320 1440h80v80h-80z" stroke="#000" stroke-width="2" fill="#fff"/><use xlink:href="#a" transform="matrix(1,0,0,1,325,1445.0000000011642) translate(30 39.1)"/><path d="M400 1280h80v80h-80z" stroke="#000" stroke-width="2" fill="#fff"/><use xlink:href="#a" transform="matrix(1,0,0,1,405,1285.0000000006985) translate(30 39.1)"/><path d="M400 1360h80v80h-80zM400 1440h80v80h-80z" stroke="#000" stroke-width="2" fill="#fff"/><use xlink:href="#a" transform="matrix(1,0,0,1,405,1445.0000000011642) translate(30 39.1)"/><path d="M480 1360h80v80h-80z" stroke="#000" stroke-width="2" fill="#fff"/><use xlink:href="#a" transform="matrix(1,0,0,1,485,1365.0000000009313) translate(30 39.1)"/><path d="M480 1440h80v80h-80zM560 1440h80v80h-80z" stroke="#000" stroke-width="2" fill="#fff"/><use xlink:href="#a" transform="matrix(1,0,0,1,565,1445.0000000011642) translate(30 39.1)"/><path d="M240 1120h80v80h-80zM240 1200h80v80h-80zM320 1200h80v80h-80z" stroke="#000" stroke-width="2" fill="#fff"/><path d="M180 1540h40v40h-40z" stroke="#000" stroke-opacity="0" stroke-width="2" fill="#fff" fill-opacity="0"/><use xlink:href="#b" transform="matrix(1,0,0,1,185,1545) translate(6.111111111111111 21.333333333333336)"/><path d="M260 1540h40v40h-40z" stroke="#000" stroke-opacity="0" stroke-width="2" fill="#fff" fill-opacity="0"/><use xlink:href="#c" transform="matrix(1,0,0,1,265,1545) translate(6.111111111111111 21.333333333333336)"/><path d="M340 1540h40v40h-40z" stroke="#000" stroke-opacity="0" stroke-width="2" fill="#fff" fill-opacity="0"/><use xlink:href="#d" transform="matrix(1,0,0,1,345,1545) translate(5.4074074074074066 21.333333333333336)"/><path d="M420 1538h27.78v42H420z" fill="#fff" fill-opacity="0"/><use xlink:href="#e" transform="matrix(1,0,0,1,425,1543) translate(0 21.333333333333336)"/><path d="M506.1 1538h27.8v42h-27.8z" fill="#fff" fill-opacity="0"/><use xlink:href="#f" transform="matrix(1,0,0,1,511.1111111111111,1543) translate(0 21.333333333333336)"/><path d="M586.1 1538h27.8v42h-27.8z" fill="#fff" fill-opacity="0"/><use xlink:href="#g" transform="matrix(1,0,0,1,591.1111111111111,1543) translate(0 21.333333333333336)"/><path d="M120 1459h27.78v42H120z" fill="#fff" fill-opacity="0"/><use xlink:href="#h" transform="matrix(1,0,0,1,125,1464.0000000012806) translate(0 21.333333333333336)"/><path d="M120 1379h27.78v42H120z" fill="#fff" fill-opacity="0"/><use xlink:href="#g" transform="matrix(1,0,0,1,125,1384.0000000010477) translate(0 21.333333333333336)"/><path d="M120 1299h27.78v42H120z" fill="#fff" fill-opacity="0"/><use xlink:href="#f" transform="matrix(1,0,0,1,125,1304.000000000815) translate(0 21.333333333333336)"/><path d="M107.78 1060h40v40h-40z" stroke="#000" stroke-opacity="0" stroke-width="2" fill="#fff" fill-opacity="0"/><use xlink:href="#c" transform="matrix(1,0,0,1,112.77777777777777,1065.0000000001164) translate(6.111111111111111 21.333333333333336)"/><path d="M107.78 1141h40v40h-40z" stroke="#000" stroke-opacity="0" stroke-width="2" fill="#fff" fill-opacity="0"/><use xlink:href="#d" transform="matrix(1,0,0,1,112.77777777777777,1146.0000000003492) translate(5.4074074074074066 21.333333333333336)"/><path d="M120 1219h27.78v42H120z" fill="#fff" fill-opacity="0"/><use xlink:href="#e" transform="matrix(1,0,0,1,125,1224.000000000582) translate(0 21.333333333333336)"/><defs><path d="M27 0v-27h64v-190l-56 39v-29l58-41h29v221h61V0H27" id="i"/><use transform="matrix(0.05,0,0,0.05,0,0)" xlink:href="#i" id="a"/><path d="M205 0l-28-72H64L36 0H1l101-248h38L239 0h-34zm-38-99l-47-123c-12 45-31 82-46 123h93" id="j"/><use transform="matrix(0.07407407407407408,0,0,0.07407407407407408,0,0)" xlink:href="#j" id="b"/><path d="M160-131c35 5 61 23 61 61C221 17 115-2 30 0v-248c76 3 177-17 177 60 0 33-19 50-47 57zm-97-11c50-1 110 9 110-42 0-47-63-36-110-37v79zm0 115c55-2 124 14 124-45 0-56-70-42-124-44v89" id="k"/><use transform="matrix(0.07407407407407408,0,0,0.07407407407407408,0,0)" xlink:href="#k" id="c"/><path d="M212-179c-10-28-35-45-73-45-59 0-87 40-87 99 0 60 29 101 89 101 43 0 62-24 78-52l27 14C228-24 195 4 139 4 59 4 22-46 18-125c-6-104 99-153 187-111 19 9 31 26 39 46" id="l"/><use transform="matrix(0.07407407407407408,0,0,0.07407407407407408,0,0)" xlink:href="#l" id="d"/><path d="M30-248c118-7 216 8 213 122C240-48 200 0 122 0H30v-248zM63-27c89 8 146-16 146-99s-60-101-146-95v194" id="m"/><use transform="matrix(0.07407407407407408,0,0,0.07407407407407408,0,0)" xlink:href="#m" id="e"/><path d="M30 0v-248h187v28H63v79h144v27H63v87h162V0H30" id="n"/><use transform="matrix(0.07407407407407408,0,0,0.07407407407407408,0,0)" xlink:href="#n" id="f"/><path d="M63-220v92h138v28H63V0H30v-248h175v28H63" id="o"/><use transform="matrix(0.07407407407407408,0,0,0.07407407407407408,0,0)" xlink:href="#o" id="g"/><path d="M143 4C61 4 22-44 18-125c-5-107 100-154 193-111 17 8 29 25 37 43l-32 9c-13-25-37-40-76-40-61 0-88 39-88 99 0 61 29 100 91 101 35 0 62-11 79-27v-45h-74v-28h105v86C228-13 192 4 143 4" id="p"/><use transform="matrix(0.07407407407407408,0,0,0.07407407407407408,0,0)" xlink:href="#p" id="h"/></defs></g></svg>