<svg xmlns="http://www.w3.org/2000/svg" xmlns:xlink="http://www.w3.org/1999/xlink" xmlns:lucid="lucid" width="1031" height="600"><g transform="translate(-328.9999999999999 -320)" lucid:page-tab-id="ggaqNWnUD9KE"><path d="M0 0h1760v1360H0z" fill="#fff"/><path d="M1340 560c0 44.18-35.82 80-80 80s-80-35.82-80-80 35.82-80 80-80 80 35.82 80 80z" stroke="#000" stroke-width="2" fill="#fff"/><path d="M1330 560c0 38.66-31.34 70-70 70s-70-31.34-70-70 31.34-70 70-70 70 31.34 70 70z" stroke="#000" stroke-width="2" fill="#fff"/><use xlink:href="#a" transform="matrix(1,0,0,1,1195,495) translate(50 68.60000000000001)"/><path d="M1000 560c0 44.18-35.82 80-80 80s-80-35.82-80-80 35.82-80 80-80 80 35.82 80 80z" stroke="#000" stroke-width="2" fill="#fff"/><use xlink:href="#b" transform="matrix(1,0,0,1,845,485) translate(60 78.60000000000001)"/><path d="M600 560c0 44.18-35.82 80-80 80s-80-35.82-80-80 35.82-80 80-80 80 35.82 80 80z" stroke="#000" stroke-width="2" fill="#fff"/><use xlink:href="#c" transform="matrix(1,0,0,1,445,485) translate(60 78.60000000000001)"/><path d="M600 820c0 44.18-35.82 80-80 80s-80-35.82-80-80 35.82-80 80-80 80 35.82 80 80z" stroke="#000" stroke-width="2" fill="#fff"/><use xlink:href="#d" transform="matrix(1,0,0,1,445,745) translate(60 78.60000000000001)"/><path d="M960 440c0 22.1-17.9 40-40 40s-40-17.9-40-40 17.9-40 40-40 40 17.9 40 40z" stroke="#000" stroke-width="2" fill="#fff"/><path d="M911.16 400l-.22-1.53.1-.82" stroke="#000" stroke-width="2" fill="none"/><path d="M911.76 400.8l-.16.12-2.93.77-.5-.67 2.38-1.82z"/><path d="M924.07 391.4l-10.86 10.35-4-8.36z" stroke="#000" stroke-width="2"/><path d="M560 440c0 22.1-17.9 40-40 40s-40-17.9-40-40 17.9-40 40-40 40 17.9 40 40z" stroke="#000" stroke-width="2" fill="#fff"/><path d="M511.16 400l-.3-2.13.2-1.86.13-.32" stroke="#000" stroke-width="2" fill="none"/><path d="M512.08 400.4l-.2.44-2.44.65.8-1.9zM515.47 397.53L507.4 393l11-10.18z"/><path d="M516.18 399.07l-10.48-5.9L520 380zm-7.1-6.28l5.68 3.18 2.07-10.34z"/><path d="M520 739v-79.76" stroke="#000" stroke-width="2" fill="none"/><path d="M521 740.03l-1-.03h-.68l-.32.02V739h2zM524.64 658.5h-9.28l4.64-14.26z"/><path d="M526 659.5h-12l6-18.5zm-9.26-2h6.52L520 647.47z"/><path d="M400 670h120v40H400z" stroke="#000" stroke-opacity="0" stroke-width="2" fill="#fff" fill-opacity="0"/><use xlink:href="#e" transform="matrix(1,0,0,1,405,675) translate(6.514998070987652 19.444444444444443)"/><use xlink:href="#f" transform="matrix(1,0,0,1,405,675) translate(12.68783757716049 19.444444444444443)"/><use xlink:href="#g" transform="matrix(1,0,0,1,405,675) translate(32.5 19.444444444444443)"/><use xlink:href="#f" transform="matrix(1,0,0,1,405,675) translate(44.84567901234568 19.444444444444443)"/><use xlink:href="#h" transform="matrix(1,0,0,1,405,675) translate(64.65784143518519 19.444444444444443)"/><use xlink:href="#i" transform="matrix(1,0,0,1,405,675) translate(91.13932291666666 19.444444444444443)"/><path d="M340 820h81.76" stroke="#000" stroke-width="2" fill="none"/><path d="M436.76 820l-14.26 4.64v-9.28z" stroke="#000" stroke-width="2"/><path d="M460 340h120v40H460z" stroke="#000" stroke-opacity="0" stroke-width="2" fill="#fff" fill-opacity="0"/><use xlink:href="#e" transform="matrix(1,0,0,1,465,345) translate(5.432339891975317 19.444444444444443)"/><use xlink:href="#j" transform="matrix(1,0,0,1,465,345) translate(11.605179398148156 19.444444444444443)"/><use xlink:href="#g" transform="matrix(1,0,0,1,465,345) translate(31.113522376543216 19.444444444444443)"/><use xlink:href="#f" transform="matrix(1,0,0,1,465,345) translate(43.45920138888889 19.444444444444443)"/><use xlink:href="#h" transform="matrix(1,0,0,1,465,345) translate(63.2713638117284 19.444444444444443)"/><use xlink:href="#k" transform="matrix(1,0,0,1,465,345) translate(89.75284529320987 19.444444444444443)"/><path d="M601 560h219.76" stroke="#000" stroke-width="2" fill="none"/><path d="M601 561h-1.03l.03-1v-.68l-.02-.32H601zM835.76 560l-14.26 4.64v-9.28z"/><path d="M839 560l-18.5 6v-12zm-16.5 3.26l10.03-3.26-10.03-3.26z"/><path d="M660 520h120v40H660z" stroke="#000" stroke-opacity="0" stroke-width="2" fill="#fff" fill-opacity="0"/><g><use xlink:href="#e" transform="matrix(1,0,0,1,665,525) translate(6.0200858410493865 19.444444444444443)"/><use xlink:href="#l" transform="matrix(1,0,0,1,665,525) translate(12.192925347222225 19.444444444444443)"/><use xlink:href="#g" transform="matrix(1,0,0,1,665,525) translate(31.701268325617285 19.444444444444443)"/><use xlink:href="#f" transform="matrix(1,0,0,1,665,525) translate(44.04694733796296 19.444444444444443)"/><use xlink:href="#h" transform="matrix(1,0,0,1,665,525) translate(63.85910976080247 19.444444444444443)"/><use xlink:href="#m" transform="matrix(1,0,0,1,665,525) translate(90.34059124228395 19.444444444444443)"/></g><path d="M1001 560h159.76" stroke="#000" stroke-width="2" fill="none"/><path d="M1001 561h-1.03l.03-1v-.68l-.02-.32h1.02zM1175.76 560l-14.26 4.64v-9.28z"/><path d="M1179 560l-18.5 6v-12zm-16.5 3.26l10.03-3.26-10.03-3.26z"/><path d="M860 360h120v40H860z" stroke="#000" stroke-opacity="0" stroke-width="2" fill="#fff" fill-opacity="0"/><g><use xlink:href="#e" transform="matrix(1,0,0,1,865,365) translate(8.763503086419753 19.444444444444443)"/><use xlink:href="#n" transform="matrix(1,0,0,1,865,365) translate(14.936342592592592 19.444444444444443)"/><use xlink:href="#h" transform="matrix(1,0,0,1,865,365) translate(61.1156925154321 19.444444444444443)"/><use xlink:href="#o" transform="matrix(1,0,0,1,865,365) translate(87.59717399691357 19.444444444444443)"/></g><path d="M1040 520h120v40h-120z" stroke="#000" stroke-opacity="0" stroke-width="2" fill="#fff" fill-opacity="0"/><g><use xlink:href="#e" transform="matrix(1,0,0,1,1045,525) translate(2.095751350308646 19.444444444444443)"/><use xlink:href="#p" transform="matrix(1,0,0,1,1045,525) translate(8.268590856481485 19.444444444444443)"/><use xlink:href="#q" transform="matrix(1,0,0,1,1045,525) translate(48.578920717592595 19.444444444444443)"/><use xlink:href="#h" transform="matrix(1,0,0,1,1045,525) translate(68.08726369598766 19.444444444444443)"/><use xlink:href="#r" transform="matrix(1,0,0,1,1045,525) translate(94.56874517746914 19.444444444444443)"/></g><defs><path d="M145-31C134-9 116 4 85 4 32 4 16-35 15-94c0-59 17-99 70-100 32-1 48 14 60 33 0-11-1-24 2-32h30l-1 268h-32zM93-21c41 0 51-33 51-76s-8-73-50-73c-40 0-46 35-46 75s5 74 45 74" id="s"/><path d="M-5 72V49h209v23H-5" id="t"/><path d="M126-127c33 6 58 20 58 59 0 88-139 92-164 29-3-8-5-16-6-25l32-3c6 27 21 44 54 44 32 0 52-15 52-46 0-38-36-46-79-43v-28c39 1 72-4 72-42 0-27-17-43-46-43-28 0-47 15-49 41l-32-3c6-42 35-63 81-64 48-1 79 21 79 65 0 36-21 52-52 59" id="u"/><g id="a"><use transform="matrix(0.05,0,0,0.05,0,0)" xlink:href="#s"/><use transform="matrix(0.05,0,0,0.05,10,0)" xlink:href="#t"/><use transform="matrix(0.05,0,0,0.05,20,0)" xlink:href="#u"/></g><path d="M101-251c82-7 93 87 43 132L82-64C71-53 59-42 53-27h129V0H18c2-99 128-94 128-182 0-28-16-43-45-43s-46 15-49 41l-32-3c6-41 34-60 81-64" id="v"/><g id="b"><use transform="matrix(0.05,0,0,0.05,0,0)" xlink:href="#s"/><use transform="matrix(0.05,0,0,0.05,10,0)" xlink:href="#t"/><use transform="matrix(0.05,0,0,0.05,20,0)" xlink:href="#v"/></g><path d="M27 0v-27h64v-190l-56 39v-29l58-41h29v221h61V0H27" id="w"/><g id="c"><use transform="matrix(0.05,0,0,0.05,0,0)" xlink:href="#s"/><use transform="matrix(0.05,0,0,0.05,10,0)" xlink:href="#t"/><use transform="matrix(0.05,0,0,0.05,20,0)" xlink:href="#w"/></g><path d="M101-251c68 0 85 55 85 127S166 4 100 4C33 4 14-52 14-124c0-73 17-127 87-127zm-1 229c47 0 54-49 54-102s-4-102-53-102c-51 0-55 48-55 102 0 53 5 102 54 102" id="x"/><g id="d"><use transform="matrix(0.05,0,0,0.05,0,0)" xlink:href="#s"/><use transform="matrix(0.05,0,0,0.05,10,0)" xlink:href="#t"/><use transform="matrix(0.05,0,0,0.05,20,0)" xlink:href="#x"/></g><path fill="#242729" d="M114-558c0-472 427-700 870-546v159c-302-114-683-17-677 313h677v142H307c0 336 387 438 677 313v165C535 125 114-80 114-558" id="y"/><use transform="matrix(0.010850694444444444,0,0,0.010850694444444444,0,0)" xlink:href="#y" id="f"/><path d="M68-38c1 34 0 65-14 84H32c9-13 17-26 17-46H33v-38h35" id="z"/><use transform="matrix(0.06172839506172839,0,0,0.06172839506172839,0,0)" xlink:href="#z" id="g"/><path d="M16-82v-28h88v28H16" id="A"/><path d="M18-27v-27l151-64-151-65v-27l175 74v36" id="B"/><g id="h"><use transform="matrix(0.06172839506172839,0,0,0.06172839506172839,0,0)" xlink:href="#A"/><use transform="matrix(0.06172839506172839,0,0,0.06172839506172839,7.345679012345679,0)" xlink:href="#B"/></g><path d="M194-70c0 46-34 64-81 66v29H91V-4C42-5 12-27 4-67l30-6c5 28 25 41 57 43v-87c-38-9-76-20-76-67 1-42 33-58 76-59v-23h22v23c45 0 67 20 76 56l-31 6c-5-23-18-35-45-37v78c41 10 81 20 81 70zm-81 41c51 7 71-66 19-77-6-2-12-4-19-6v83zM91-219c-47-6-63 57-18 69 6 2 12 3 18 5v-74" id="C"/><use transform="matrix(0.06172839506172839,0,0,0.06172839506172839,0,0)" xlink:href="#C" id="i"/><path fill="#242729" d="M1000-272c3 95 12 159 101 161 21 0 41-3 59-7V-6c-44 10-86 16-139 16-141 2-191-84-197-217h-6C748-76 648 20 446 20c-207 0-318-120-318-322 0-266 194-348 454-354l236-4c12-191-40-305-222-305-140 0-220 47-232 172l-188-17c33-204 181-292 423-292 255 0 401 118 401 364v466zm-683-27c0 109 63 184 175 182 166-3 259-96 306-217 24-65 20-120 20-200-232 7-501-28-501 235" id="D"/><use transform="matrix(0.010850694444444444,0,0,0.010850694444444444,0,0)" xlink:href="#D" id="j"/><path d="M195 0l-74-108L45 0H8l94-129-87-119h37l69 98 67-98h37l-84 118L233 0h-38" id="E"/><use transform="matrix(0.06172839506172839,0,0,0.06172839506172839,0,0)" xlink:href="#E" id="k"/><path fill="#242729" d="M930-833l-67 317h260v108H840L752 0H642l86-408H365L281 0H171l84-408H54v-108h225l67-317H105v-108h263l89-408h110l-88 408h363l88-408h110l-88 408h211v108H930zm-471 0l-69 317h362l67-317H459" id="F"/><use transform="matrix(0.010850694444444444,0,0,0.010850694444444444,0,0)" xlink:href="#F" id="l"/><use transform="matrix(0.010850694444444444,0,0,0.010850694444444444,0,0)" xlink:href="#y" id="m"/><path fill="#242729" d="M365-904c58-129 161-200 334-200 130 0 228 46 293 138s98 233 98 420c0 189-34 331-102 425S824 20 698 20c-170 0-275-64-336-184 0 55-3 116-9 164H179c5-68 6-147 6-223v-1261h180c-2 193 4 394-4 580h4zm283 791c221 0 256-197 256-427 0-229-34-425-254-425-236 0-285 195-285 441 0 237 53 411 283 411" id="G"/><path fill="#242729" d="M259 363l169-662h265L382 363H259" id="H"/><path fill="#242729" d="M614-836l333-513h205L717-705 1193 0H988L614-573 241 0H36l476-705-435-644h205" id="I"/><g id="n"><use transform="matrix(0.010850694444444444,0,0,0.010850694444444444,0,0)" xlink:href="#G"/><use transform="matrix(0.010850694444444444,0,0,0.010850694444444444,13.335503472222221,0)" xlink:href="#H"/><use transform="matrix(0.010850694444444444,0,0,0.010850694444444444,26.671006944444443,0)" xlink:href="#I"/></g><use transform="matrix(0.010850694444444444,0,0,0.010850694444444444,0,0)" xlink:href="#y" id="o"/><g id="p"><use transform="matrix(0.010850694444444444,0,0,0.010850694444444444,0,0)" xlink:href="#y"/><use transform="matrix(0.010850694444444444,0,0,0.010850694444444444,13.639322916666666,0)" xlink:href="#H"/></g><path fill="#242729" d="M558-647c-214-53-428-110-428-376 0-239 192-311 428-323v-130h128v130c251 5 384 114 433 321l-174 33c-27-133-107-212-259-221v426c233 57 464 118 464 407 0 258-203 345-464 360v161H558V-20C281-27 115-149 66-379l170-37c31 161 136 250 322 258v-489zm0-568c-146 8-256 54-256 197 0 156 132 181 256 216v-413zM686-156c160-12 292-63 292-227 0-177-151-205-292-244v471" id="J"/><use transform="matrix(0.010850694444444444,0,0,0.010850694444444444,0,0)" xlink:href="#J" id="q"/><use transform="matrix(0.010850694444444444,0,0,0.010850694444444444,0,0)" xlink:href="#J" id="r"/></defs></g></svg>