<svg xmlns="http://www.w3.org/2000/svg" xmlns:xlink="http://www.w3.org/1999/xlink" xmlns:lucid="lucid" width="990" height="341"><g transform="translate(-235 -273)" lucid:page-tab-id="a_9pyKiZSkFJ"><path d="M0 0h1760v1360H0z" fill="#fff"/><path d="M1198 500c0 44.18-35.82 80-80 80-44.2 0-80-35.82-80-80s35.8-80 80-80c44.18 0 80 35.82 80 80z" stroke="#000" stroke-width="2" fill="#fff"/><path d="M1188 500c0 38.66-31.35 70-70 70-38.67 0-70-31.34-70-70s31.33-70 70-70c38.65 0 70 31.34 70 70z" stroke="#000" stroke-width="2" fill="#fff"/><use xlink:href="#a" transform="matrix(1,0,0,1,1052.9937571607281,435) translate(58.525 68.60000000000001)"/><path d="M820 500c0 44.18-35.82 80-80 80s-80-35.82-80-80 35.82-80 80-80 80 35.82 80 80z" stroke="#000" stroke-width="2" fill="#fff"/><use xlink:href="#b" transform="matrix(1,0,0,1,665,425) translate(69 78.60000000000001)"/><path d="M780 380c0 22.1-17.9 40-40 40s-40-17.9-40-40 17.9-40 40-40 40 17.9 40 40z" stroke="#000" stroke-width="2" fill="#fff"/><path d="M731.16 340" stroke="#000" stroke-width="2" fill="none"/><path d="M731.16 341h-3v-2h3z"/><path d="M736.76 340l-14.26 4.64v-9.28z" stroke="#000" stroke-width="2"/><path d="M480 500c0 44.18-35.82 80-80 80s-80-35.82-80-80 35.82-80 80-80 80 35.82 80 80z" stroke="#000" stroke-width="2" fill="#fff"/><use xlink:href="#c" transform="matrix(1,0,0,1,325,425) translate(69 78.60000000000001)"/><path d="M240 500h60.76" stroke="#000" stroke-width="2" fill="none"/><path d="M315.76 500l-14.26 4.64v-9.28z"/><path d="M319 500l-18.5 6v-12zm-16.5 3.26l10.03-3.26-10.03-3.26z"/><path d="M481 500h159.76" stroke="#000" stroke-width="2" fill="none"/><path d="M481 501h-1.03l.03-1v-.68l-.02-.32H481zM655.76 500l-14.26 4.64v-9.28z"/><path d="M659 500l-18.5 6v-12zm-16.5 3.26l10.03-3.26-10.03-3.26z"/><path d="M821 500h207.76" stroke="#000" stroke-width="2" fill="none"/><path d="M821 501h-1.03l.03-1v-.68l-.02-.32H821zM1043.76 500l-14.27 4.64v-9.28z"/><path d="M1047 500l-18.5 6v-12zm-16.5 3.26l10.02-3.26-10.03-3.26z"/><path d="M685 280h110v60H685z" stroke="#000" stroke-opacity="0" stroke-width="2" fill="#fff" fill-opacity="0"/><use xlink:href="#d" transform="matrix(1,0,0,1,690,285) translate(2.299999999999997 28.6)"/><use xlink:href="#e" transform="matrix(1,0,0,1,690,285) translate(16.299999999999997 28.6)"/><use xlink:href="#f" transform="matrix(1,0,0,1,690,285) translate(31.799999999999997 28.6)"/><path d="M500 440h110v60H500z" stroke="#000" stroke-opacity="0" stroke-width="2" fill="#fff" fill-opacity="0"/><use xlink:href="#g" transform="matrix(1,0,0,1,505,445) translate(2.299999999999997 28.6)"/><use xlink:href="#e" transform="matrix(1,0,0,1,505,445) translate(16.299999999999997 28.6)"/><use xlink:href="#f" transform="matrix(1,0,0,1,505,445) translate(31.799999999999997 28.6)"/><path d="M870 440h110v60H870z" stroke="#000" stroke-opacity="0" stroke-width="2" fill="#fff" fill-opacity="0"/><g><use xlink:href="#g" transform="matrix(1,0,0,1,875,445) translate(2.299999999999997 28.6)"/><use xlink:href="#e" transform="matrix(1,0,0,1,875,445) translate(16.299999999999997 28.6)"/><use xlink:href="#f" transform="matrix(1,0,0,1,875,445) translate(31.799999999999997 28.6)"/></g><defs><path d="M212-179c-10-28-35-45-73-45-59 0-87 40-87 99 0 60 29 101 89 101 43 0 62-24 78-52l27 14C228-24 195 4 139 4 59 4 22-46 18-125c-6-104 99-153 187-111 19 9 31 26 39 46" id="h"/><use transform="matrix(0.05,0,0,0.05,0,0)" xlink:href="#h" id="a"/><path d="M160-131c35 5 61 23 61 61C221 17 115-2 30 0v-248c76 3 177-17 177 60 0 33-19 50-47 57zm-97-11c50-1 110 9 110-42 0-47-63-36-110-37v79zm0 115c55-2 124 14 124-45 0-56-70-42-124-44v89" id="i"/><use transform="matrix(0.05,0,0,0.05,0,0)" xlink:href="#i" id="b"/><path d="M205 0l-28-72H64L36 0H1l101-248h38L239 0h-34zm-38-99l-47-123c-12 45-31 82-46 123h93" id="j"/><use transform="matrix(0.05,0,0,0.05,0,0)" xlink:href="#j" id="c"/><path d="M179-190L93 31C79 59 56 82 12 73V49c39 6 53-20 64-50L1-190h34L92-34l54-156h33" id="k"/><use transform="matrix(0.05,0,0,0.05,0,0)" xlink:href="#k" id="d"/><path d="M18-150v-26h174v26H18zm0 90v-26h174v26H18" id="l"/><use transform="matrix(0.05,0,0,0.05,0,0)" xlink:href="#l" id="e"/><path d="M135-143c-3-34-86-38-87 0 15 53 115 12 119 90S17 21 10-45l28-5c4 36 97 45 98 0-10-56-113-15-118-90-4-57 82-63 122-42 12 7 21 19 24 35" id="m"/><path d="M210-169c-67 3-38 105-44 169h-31v-121c0-29-5-50-35-48C34-165 62-65 56 0H25l-1-190h30c1 10-1 24 2 32 10-44 99-50 107 0 11-21 27-35 58-36 85-2 47 119 55 194h-31v-121c0-29-5-49-35-48" id="n"/><path d="M115-194c53 0 69 39 70 98 0 66-23 100-70 100C84 3 66-7 56-30L54 0H23l1-261h32v101c10-23 28-34 59-34zm-8 174c40 0 45-34 45-75 0-40-5-75-45-74-42 0-51 32-51 76 0 43 10 73 51 73" id="o"/><path d="M100-194c62-1 85 37 85 99 1 63-27 99-86 99S16-35 15-95c0-66 28-99 85-99zM99-20c44 1 53-31 53-75 0-43-8-75-51-75s-53 32-53 75 10 74 51 75" id="p"/><path d="M24 0v-261h32V0H24" id="q"/><g id="f"><use transform="matrix(0.05,0,0,0.05,0,0)" xlink:href="#m"/><use transform="matrix(0.05,0,0,0.05,9,0)" xlink:href="#k"/><use transform="matrix(0.05,0,0,0.05,18,0)" xlink:href="#n"/><use transform="matrix(0.05,0,0,0.05,32.95,0)" xlink:href="#o"/><use transform="matrix(0.05,0,0,0.05,42.95,0)" xlink:href="#p"/><use transform="matrix(0.05,0,0,0.05,52.95,0)" xlink:href="#q"/><use transform="matrix(0.05,0,0,0.05,56.900000000000006,0)" xlink:href="#m"/></g><path d="M141 0L90-78 38 0H4l68-98-65-92h35l48 74 47-74h35l-64 92 68 98h-35" id="r"/><use transform="matrix(0.05,0,0,0.05,0,0)" xlink:href="#r" id="g"/></defs></g></svg>