<svg xmlns="http://www.w3.org/2000/svg" xmlns:xlink="http://www.w3.org/1999/xlink" xmlns:lucid="lucid" width="1400" height="660"><g transform="translate(-140 -260)" lucid:page-tab-id="0_0"><path d="M0 0h1760v1360H0z" fill="#fff"/><path d="M570 280h620v160H570z" stroke="#000" stroke-opacity="0" stroke-width="2" fill="#fff" fill-opacity="0"/><use xlink:href="#a" transform="matrix(1,0,0,1,575,285) translate(25.333333333333258 59)"/><use xlink:href="#b" transform="matrix(1,0,0,1,575,285) translate(240.66666666666663 59)"/><use xlink:href="#c" transform="matrix(1,0,0,1,575,285) translate(396 59)"/><use xlink:href="#d" transform="matrix(1,0,0,1,575,285) translate(171.88888888888889 107)"/><use xlink:href="#e" transform="matrix(1,0,0,1,575,285) translate(262.77777777777777 107)"/><use xlink:href="#f" transform="matrix(1,0,0,1,575,285) translate(369.33333333333337 107)"/><path d="M200 715.6c0 11.05-8.95 20-20 20s-20-8.95-20-20 8.95-20 20-20 20 8.95 20 20z" stroke="#000" stroke-width="2"/><path d="M356 675.6c-8.84 0-16 7.16-16 16v48c0 8.84 7.16 16 16 16h128c8.84 0 16-7.16 16-16v-48c0-8.84-7.16-16-16-16z" stroke="#000" stroke-width="2" fill="#fff"/><use xlink:href="#g" transform="matrix(1,0,0,1,348,683.6) translate(34.775 24.799999999999997)"/><use xlink:href="#h" transform="matrix(1,0,0,1,348,683.6) translate(62.725 24.799999999999997)"/><use xlink:href="#i" transform="matrix(1,0,0,1,348,683.6) translate(26.549999999999997 46.4)"/><path d="M620 500h200v60H620z" stroke="#000" stroke-opacity="0" stroke-width="2" fill="#fff" fill-opacity="0"/><use xlink:href="#j" transform="matrix(1,0,0,1,625,505) translate(9.949999999999989 17.799999999999997)"/><use xlink:href="#k" transform="matrix(1,0,0,1,625,505) translate(51.54999999999999 17.799999999999997)"/><use xlink:href="#l" transform="matrix(1,0,0,1,625,505) translate(123.15 17.799999999999997)"/><use xlink:href="#m" transform="matrix(1,0,0,1,625,505) translate(48.05 39.4)"/><use xlink:href="#n" transform="matrix(1,0,0,1,625,505) translate(101.95 39.4)"/><path d="M201 715.6h136.04" stroke="#000" stroke-width="2" fill="none"/><path d="M201 716.6h-1.13l.13-1-.04-1H201zM339 715.6l-19.53 11.55-1.02-1.72 16.62-9.83-16.62-9.83 1.02-1.72z"/><path d="M501 715.6h79V580h277.04" stroke="#000" stroke-width="2" fill="none"/><path d="M501 716.6h-1v-2h1zM859 580l-19.53 11.55-1.02-1.72 16.62-9.83-16.62-9.83 1.02-1.72z"/><path d="M876 540c-8.84 0-16 7.16-16 16v48c0 8.84 7.16 16 16 16h128c8.84 0 16-7.16 16-16v-48c0-8.84-7.16-16-16-16z" stroke="#000" stroke-width="2" fill="#fff"/><use xlink:href="#o" transform="matrix(1,0,0,1,868,548) translate(28.574999999999996 35.6)"/><use xlink:href="#p" transform="matrix(1,0,0,1,868,548) translate(84.475 35.6)"/><path d="M501 715.6h356.04" stroke="#000" stroke-width="2" fill="none"/><path d="M501 716.6h-1v-2h1zM859 715.6l-19.53 11.55-1.02-1.72 16.62-9.83-16.62-9.83 1.02-1.72z"/><path d="M620 660h200v60H620z" stroke="#000" stroke-opacity="0" stroke-width="2" fill="#fff" fill-opacity="0"/><use xlink:href="#j" transform="matrix(1,0,0,1,625,665) translate(19.950000000000003 17.799999999999997)"/><use xlink:href="#q" transform="matrix(1,0,0,1,625,665) translate(61.550000000000004 17.799999999999997)"/><use xlink:href="#r" transform="matrix(1,0,0,1,625,665) translate(138.14999999999998 17.799999999999997)"/><use xlink:href="#s" transform="matrix(1,0,0,1,625,665) translate(40.099999999999994 39.4)"/><use xlink:href="#t" transform="matrix(1,0,0,1,625,665) translate(99 39.4)"/><path d="M876 675.6c-8.84 0-16 7.16-16 16v48c0 8.84 7.16 16 16 16h128c8.84 0 16-7.16 16-16v-48c0-8.84-7.16-16-16-16z" stroke="#000" stroke-width="2" fill="#fff"/><use xlink:href="#u" transform="matrix(1,0,0,1,868,683.6) translate(5.125 35.6)"/><use xlink:href="#v" transform="matrix(1,0,0,1,868,683.6) translate(66.025 35.6)"/><path d="M501 715.6h79V860h277.04" stroke="#000" stroke-width="2" fill="none"/><path d="M501 716.6h-1v-2h1zM859 860l-19.53 11.55-1.02-1.72 16.62-9.83-16.62-9.83 1.02-1.72z"/><path d="M876 820c-8.84 0-16 7.16-16 16v48c0 8.84 7.16 16 16 16h128c8.84 0 16-7.16 16-16v-48c0-8.84-7.16-16-16-16z" stroke="#000" stroke-width="2" fill="#fff"/><use xlink:href="#w" transform="matrix(1,0,0,1,868,828) translate(22.074999999999996 35.6)"/><use xlink:href="#x" transform="matrix(1,0,0,1,868,828) translate(85.975 35.6)"/><path d="M600 800h200v60H600z" stroke="#000" stroke-opacity="0" stroke-width="2" fill="#fff" fill-opacity="0"/><use xlink:href="#j" transform="matrix(1,0,0,1,605,805) translate(4.8999999999999915 17.799999999999997)"/><use xlink:href="#y" transform="matrix(1,0,0,1,605,805) translate(46.49999999999999 17.799999999999997)"/><use xlink:href="#z" transform="matrix(1,0,0,1,605,805) translate(76.2 17.799999999999997)"/><use xlink:href="#A" transform="matrix(1,0,0,1,605,805) translate(111.2 17.799999999999997)"/><use xlink:href="#B" transform="matrix(1,0,0,1,605,805) translate(126.2 17.799999999999997)"/><use xlink:href="#C" transform="matrix(1,0,0,1,605,805) translate(10.674999999999983 39.4)"/><use xlink:href="#D" transform="matrix(1,0,0,1,605,805) translate(72.57499999999999 39.4)"/><use xlink:href="#E" transform="matrix(1,0,0,1,605,805) translate(111.52499999999999 39.4)"/><path d="M1021 715.6h169.5V580h150.26" stroke="#000" stroke-width="2" fill="none"/><path d="M1021 716.6h-1v-2h1zM1355.76 580l-14.26 4.64v-9.28z"/><path d="M1359 580l-18.5 6v-12zm-16.5 3.26l10.03-3.26-10.03-3.26z"/><path d="M1021 715.6h319.76" stroke="#000" stroke-width="2" fill="none"/><path d="M1021 716.6h-1v-2h1zM1355.76 715.6l-14.26 4.64v-9.28z"/><path d="M1359 715.6l-18.5 6v-12zm-16.5 3.26l10.03-3.26-10.03-3.26z"/><path d="M1021 715.6h169V860h150.76" stroke="#000" stroke-width="2" fill="none"/><path d="M1021 716.6h-1v-2h1zM1355.76 860l-14.26 4.64v-9.28z"/><path d="M1359 860l-18.5 6v-12zm-16.5 3.26l10.03-3.26-10.03-3.26z"/><path d="M1376 675.6c-8.84 0-16 7.16-16 16v48c0 8.84 7.16 16 16 16h128c8.84 0 16-7.16 16-16v-48c0-8.84-7.16-16-16-16z" stroke="#000" stroke-width="2" fill="#fff"/><g><use xlink:href="#F" transform="matrix(1,0,0,1,1368,683.6) translate(4.099999999999994 35.6)"/><use xlink:href="#G" transform="matrix(1,0,0,1,1368,683.6) translate(52.05 35.6)"/></g><path d="M1376 540c-8.84 0-16 7.16-16 16v48c0 8.84 7.16 16 16 16h128c8.84 0 16-7.16 16-16v-48c0-8.84-7.16-16-16-16z" stroke="#000" stroke-width="2" fill="#fff"/><g><use xlink:href="#H" transform="matrix(1,0,0,1,1368,548) translate(22.599999999999994 35.6)"/><use xlink:href="#I" transform="matrix(1,0,0,1,1368,548) translate(72.55 35.6)"/></g><path d="M1376 820c-8.84 0-16 7.16-16 16v48c0 8.84 7.16 16 16 16h128c8.84 0 16-7.16 16-16v-48c0-8.84-7.16-16-16-16z" stroke="#000" stroke-width="2" fill="#fff"/><g><use xlink:href="#J" transform="matrix(1,0,0,1,1368,828) translate(7.2749999999999915 35.6)"/><use xlink:href="#G" transform="matrix(1,0,0,1,1368,828) translate(48.87499999999999 35.6)"/></g><defs><path d="M153-248C145-148 188 4 80 4 36 3 13-21 6-62l32-5c4 25 16 42 43 43 27 0 39-20 39-49v-147H72v-28h81" id="K"/><path d="M114-163C36-179 61-72 57 0H25l-1-190h30c1 12-1 29 2 39 6-27 23-49 58-41v29" id="L"/><path d="M127-220V0H93v-220H8v-28h204v28h-85" id="M"/><path d="M100-194c63 0 86 42 84 106H49c0 40 14 67 53 68 26 1 43-12 49-29l28 8c-11 28-37 45-77 45C44 4 14-33 15-96c1-61 26-98 85-98zm52 81c6-60-76-77-97-28-3 7-6 17-6 28h103" id="N"/><path d="M96-169c-40 0-48 33-48 73s9 75 48 75c24 0 41-14 43-38l32 2c-6 37-31 61-74 61-59 0-76-41-82-99-10-93 101-131 147-64 4 7 5 14 7 22l-32 3c-4-21-16-35-41-35" id="O"/><path d="M106-169C34-169 62-67 57 0H25v-261h32l-1 103c12-21 28-36 61-36 89 0 53 116 60 194h-32v-121c2-32-8-49-39-48" id="P"/><path d="M135-143c-3-34-86-38-87 0 15 53 115 12 119 90S17 21 10-45l28-5c4 36 97 45 98 0-10-56-113-15-118-90-4-57 82-63 122-42 12 7 21 19 24 35" id="Q"/><path d="M33 0v-38h34V0H33" id="R"/><path d="M117-194c89-4 53 116 60 194h-32v-121c0-31-8-49-39-48C34-167 62-67 57 0H25l-1-190h30c1 10-1 24 2 32 11-22 29-35 61-36" id="S"/><path d="M59-47c-2 24 18 29 38 22v24C64 9 27 4 27-40v-127H5v-23h24l9-43h21v43h35v23H59v120" id="T"/><g id="a"><use transform="matrix(0.1111111111111111,0,0,0.1111111111111111,0,0)" xlink:href="#K"/><use transform="matrix(0.1111111111111111,0,0,0.1111111111111111,20,0)" xlink:href="#L"/><use transform="matrix(0.1111111111111111,0,0,0.1111111111111111,33.22222222222222,0)" xlink:href="#M"/><use transform="matrix(0.1111111111111111,0,0,0.1111111111111111,53.111111111111114,0)" xlink:href="#N"/><use transform="matrix(0.1111111111111111,0,0,0.1111111111111111,75.33333333333334,0)" xlink:href="#O"/><use transform="matrix(0.1111111111111111,0,0,0.1111111111111111,95.33333333333334,0)" xlink:href="#P"/><use transform="matrix(0.1111111111111111,0,0,0.1111111111111111,117.55555555555557,0)" xlink:href="#Q"/><use transform="matrix(0.1111111111111111,0,0,0.1111111111111111,137.55555555555557,0)" xlink:href="#R"/><use transform="matrix(0.1111111111111111,0,0,0.1111111111111111,148.66666666666669,0)" xlink:href="#S"/><use transform="matrix(0.1111111111111111,0,0,0.1111111111111111,170.8888888888889,0)" xlink:href="#N"/><use transform="matrix(0.1111111111111111,0,0,0.1111111111111111,193.11111111111114,0)" xlink:href="#T"/></g><path d="M30-248c87 1 191-15 191 75 0 78-77 80-158 76V0H30v-248zm33 125c57 0 124 11 124-50 0-59-68-47-124-48v98" id="U"/><path d="M100-194c62-1 85 37 85 99 1 63-27 99-86 99S16-35 15-95c0-66 28-99 85-99zM99-20c44 1 53-31 53-75 0-43-8-75-51-75s-53 32-53 75 10 74 51 75" id="V"/><path d="M24-231v-30h32v30H24zM-9 49c24 4 33-6 33-30v-209h32V24c2 40-23 58-65 49V49" id="W"/><g id="b"><use transform="matrix(0.1111111111111111,0,0,0.1111111111111111,0,0)" xlink:href="#U"/><use transform="matrix(0.1111111111111111,0,0,0.1111111111111111,26.666666666666664,0)" xlink:href="#L"/><use transform="matrix(0.1111111111111111,0,0,0.1111111111111111,39.888888888888886,0)" xlink:href="#V"/><use transform="matrix(0.1111111111111111,0,0,0.1111111111111111,62.11111111111111,0)" xlink:href="#W"/><use transform="matrix(0.1111111111111111,0,0,0.1111111111111111,70.88888888888889,0)" xlink:href="#N"/><use transform="matrix(0.1111111111111111,0,0,0.1111111111111111,93.11111111111111,0)" xlink:href="#O"/><use transform="matrix(0.1111111111111111,0,0,0.1111111111111111,113.11111111111111,0)" xlink:href="#T"/><use transform="matrix(0.1111111111111111,0,0,0.1111111111111111,124.22222222222224,0)" xlink:href="#Q"/></g><path d="M33 0v-248h34V0H33" id="X"/><path d="M177-190C167-65 218 103 67 71c-23-6-38-20-44-43l32-5c15 47 100 32 89-28v-30C133-14 115 1 83 1 29 1 15-40 15-95c0-56 16-97 71-98 29-1 48 16 59 35 1-10 0-23 2-32h30zM94-22c36 0 50-32 50-73 0-42-14-75-50-75-39 0-46 34-46 75s6 73 46 73" id="Y"/><path d="M141-36C126-15 110 5 73 4 37 3 15-17 15-53c-1-64 63-63 125-63 3-35-9-54-41-54-24 1-41 7-42 31l-33-3c5-37 33-52 76-52 45 0 72 20 72 64v82c-1 20 7 32 28 27v20c-31 9-61-2-59-35zM48-53c0 20 12 33 32 33 41-3 63-29 60-74-43 2-92-5-92 41" id="Z"/><path d="M24-231v-30h32v30H24zM24 0v-190h32V0H24" id="aa"/><g id="c"><use transform="matrix(0.1111111111111111,0,0,0.1111111111111111,0,0)" xlink:href="#X"/><use transform="matrix(0.1111111111111111,0,0,0.1111111111111111,11.11111111111111,0)" xlink:href="#S"/><use transform="matrix(0.1111111111111111,0,0,0.1111111111111111,33.33333333333333,0)" xlink:href="#T"/><use transform="matrix(0.1111111111111111,0,0,0.1111111111111111,44.44444444444444,0)" xlink:href="#N"/><use transform="matrix(0.1111111111111111,0,0,0.1111111111111111,66.66666666666666,0)" xlink:href="#Y"/><use transform="matrix(0.1111111111111111,0,0,0.1111111111111111,88.88888888888889,0)" xlink:href="#L"/><use transform="matrix(0.1111111111111111,0,0,0.1111111111111111,102.11111111111111,0)" xlink:href="#Z"/><use transform="matrix(0.1111111111111111,0,0,0.1111111111111111,124.33333333333336,0)" xlink:href="#T"/><use transform="matrix(0.1111111111111111,0,0,0.1111111111111111,135.44444444444446,0)" xlink:href="#aa"/><use transform="matrix(0.1111111111111111,0,0,0.1111111111111111,144.22222222222223,0)" xlink:href="#V"/><use transform="matrix(0.1111111111111111,0,0,0.1111111111111111,166.44444444444446,0)" xlink:href="#S"/></g><path d="M266 0h-40l-56-210L115 0H75L2-248h35L96-30l15-64 43-154h32l59 218 59-218h35" id="ab"/><g id="d"><use transform="matrix(0.1111111111111111,0,0,0.1111111111111111,0,0)" xlink:href="#ab"/><use transform="matrix(0.1111111111111111,0,0,0.1111111111111111,37.666666666666664,0)" xlink:href="#aa"/><use transform="matrix(0.1111111111111111,0,0,0.1111111111111111,46.44444444444444,0)" xlink:href="#T"/><use transform="matrix(0.1111111111111111,0,0,0.1111111111111111,57.55555555555555,0)" xlink:href="#P"/></g><path d="M190 0L58-211 59 0H30v-248h39L202-35l-2-213h31V0h-41" id="ac"/><path d="M85-194c31 0 48 13 60 33l-1-100h32l1 261h-30c-2-10 0-23-3-31C134-8 116 4 85 4 32 4 16-35 15-94c0-66 23-100 70-100zm9 24c-40 0-46 34-46 75 0 40 6 74 45 74 42 0 51-32 51-76 0-42-9-74-50-73" id="ad"/><g id="e"><use transform="matrix(0.1111111111111111,0,0,0.1111111111111111,0,0)" xlink:href="#ac"/><use transform="matrix(0.1111111111111111,0,0,0.1111111111111111,28.777777777777775,0)" xlink:href="#V"/><use transform="matrix(0.1111111111111111,0,0,0.1111111111111111,51,0)" xlink:href="#ad"/><use transform="matrix(0.1111111111111111,0,0,0.1111111111111111,73.22222222222223,0)" xlink:href="#N"/></g><path d="M185-189c-5-48-123-54-124 2 14 75 158 14 163 119 3 78-121 87-175 55-17-10-28-26-33-46l33-7c5 56 141 63 141-1 0-78-155-14-162-118-5-82 145-84 179-34 5 7 8 16 11 25" id="ae"/><g id="f"><use transform="matrix(0.1111111111111111,0,0,0.1111111111111111,0,0)" xlink:href="#ae"/><use transform="matrix(0.1111111111111111,0,0,0.1111111111111111,26.666666666666664,0)" xlink:href="#aa"/><use transform="matrix(0.1111111111111111,0,0,0.1111111111111111,35.44444444444444,0)" xlink:href="#T"/><use transform="matrix(0.1111111111111111,0,0,0.1111111111111111,46.55555555555556,0)" xlink:href="#N"/></g><g id="g"><use transform="matrix(0.05,0,0,0.05,0,0)" xlink:href="#ac"/><use transform="matrix(0.05,0,0,0.05,12.950000000000001,0)" xlink:href="#V"/></g><path d="M197 0v-115H63V0H30v-248h33v105h134v-105h34V0h-34" id="af"/><g id="h"><use transform="matrix(0.05,0,0,0.05,0,0)" xlink:href="#af"/><use transform="matrix(0.05,0,0,0.05,12.950000000000001,0)" xlink:href="#M"/><use transform="matrix(0.05,0,0,0.05,23.900000000000002,0)" xlink:href="#M"/><use transform="matrix(0.05,0,0,0.05,34.85,0)" xlink:href="#U"/></g><path d="M212-179c-10-28-35-45-73-45-59 0-87 40-87 99 0 60 29 101 89 101 43 0 62-24 78-52l27 14C228-24 195 4 139 4 59 4 22-46 18-125c-6-104 99-153 187-111 19 9 31 26 39 46" id="ag"/><g id="i"><use transform="matrix(0.05,0,0,0.05,0,0)" xlink:href="#ag"/><use transform="matrix(0.05,0,0,0.05,12.950000000000001,0)" xlink:href="#V"/><use transform="matrix(0.05,0,0,0.05,22.950000000000003,0)" xlink:href="#S"/><use transform="matrix(0.05,0,0,0.05,32.95,0)" xlink:href="#S"/><use transform="matrix(0.05,0,0,0.05,42.95,0)" xlink:href="#N"/><use transform="matrix(0.05,0,0,0.05,52.95,0)" xlink:href="#O"/><use transform="matrix(0.05,0,0,0.05,61.95,0)" xlink:href="#T"/><use transform="matrix(0.05,0,0,0.05,66.95,0)" xlink:href="#aa"/><use transform="matrix(0.05,0,0,0.05,70.9,0)" xlink:href="#V"/><use transform="matrix(0.05,0,0,0.05,80.9,0)" xlink:href="#S"/></g><path d="M143 4C61 4 22-44 18-125c-5-107 100-154 193-111 17 8 29 25 37 43l-32 9c-13-25-37-40-76-40-61 0-88 39-88 99 0 61 29 100 91 101 35 0 62-11 79-27v-45h-74v-28h105v86C228-13 192 4 143 4" id="ah"/><path d="M30 0v-248h187v28H63v79h144v27H63v87h162V0H30" id="ai"/><g id="j"><use transform="matrix(0.05,0,0,0.05,0,0)" xlink:href="#ah"/><use transform="matrix(0.05,0,0,0.05,14,0)" xlink:href="#ai"/><use transform="matrix(0.05,0,0,0.05,26,0)" xlink:href="#M"/></g><path d="M109-170H84l-4-78h32zm-65 0H19l-4-78h33" id="aj"/><path d="M0 4l72-265h28L28 4H0" id="ak"/><path d="M210-169c-67 3-38 105-44 169h-31v-121c0-29-5-50-35-48C34-165 62-65 56 0H25l-1-190h30c1 10-1 24 2 32 10-44 99-50 107 0 11-21 27-35 58-36 85-2 47 119 55 194h-31v-121c0-29-5-49-35-48" id="al"/><g id="k"><use transform="matrix(0.05,0,0,0.05,0,0)" xlink:href="#aj"/><use transform="matrix(0.05,0,0,0.05,6.3500000000000005,0)" xlink:href="#ak"/><use transform="matrix(0.05,0,0,0.05,11.350000000000001,0)" xlink:href="#Z"/><use transform="matrix(0.05,0,0,0.05,21.35,0)" xlink:href="#ad"/><use transform="matrix(0.05,0,0,0.05,31.35,0)" xlink:href="#al"/><use transform="matrix(0.05,0,0,0.05,46.300000000000004,0)" xlink:href="#aa"/><use transform="matrix(0.05,0,0,0.05,50.25000000000001,0)" xlink:href="#S"/><use transform="matrix(0.05,0,0,0.05,60.25,0)" xlink:href="#aj"/></g><g id="l"><use transform="matrix(0.05,0,0,0.05,0,0)" xlink:href="#ak"/><use transform="matrix(0.05,0,0,0.05,5,0)" xlink:href="#L"/><use transform="matrix(0.05,0,0,0.05,10.95,0)" xlink:href="#N"/><use transform="matrix(0.05,0,0,0.05,20.95,0)" xlink:href="#S"/><use transform="matrix(0.05,0,0,0.05,30.950000000000003,0)" xlink:href="#ad"/><use transform="matrix(0.05,0,0,0.05,40.95,0)" xlink:href="#N"/><use transform="matrix(0.05,0,0,0.05,50.95,0)" xlink:href="#L"/></g><g id="m"><use transform="matrix(0.05,0,0,0.05,0,0)" xlink:href="#Z"/><use transform="matrix(0.05,0,0,0.05,10,0)" xlink:href="#ad"/><use transform="matrix(0.05,0,0,0.05,20,0)" xlink:href="#al"/><use transform="matrix(0.05,0,0,0.05,34.95,0)" xlink:href="#aa"/><use transform="matrix(0.05,0,0,0.05,38.900000000000006,0)" xlink:href="#S"/></g><path d="M115-194c55 1 70 41 70 98S169 2 115 4C84 4 66-9 55-30l1 105H24l-1-265h31l2 30c10-21 28-34 59-34zm-8 174c40 0 45-34 45-75s-6-73-45-74c-42 0-51 32-51 76 0 43 10 73 51 73" id="am"/><g id="n"><use transform="matrix(0.05,0,0,0.05,0,0)" xlink:href="#am"/><use transform="matrix(0.05,0,0,0.05,10,0)" xlink:href="#Z"/><use transform="matrix(0.05,0,0,0.05,20,0)" xlink:href="#Y"/><use transform="matrix(0.05,0,0,0.05,30,0)" xlink:href="#N"/></g><path d="M205 0l-28-72H64L36 0H1l101-248h38L239 0h-34zm-38-99l-47-123c-12 45-31 82-46 123h93" id="an"/><g id="o"><use transform="matrix(0.05,0,0,0.05,0,0)" xlink:href="#an"/><use transform="matrix(0.05,0,0,0.05,12,0)" xlink:href="#ad"/><use transform="matrix(0.05,0,0,0.05,22,0)" xlink:href="#al"/><use transform="matrix(0.05,0,0,0.05,36.95,0)" xlink:href="#aa"/><use transform="matrix(0.05,0,0,0.05,40.900000000000006,0)" xlink:href="#S"/></g><g id="p"><use transform="matrix(0.05,0,0,0.05,0,0)" xlink:href="#ae"/><use transform="matrix(0.05,0,0,0.05,12,0)" xlink:href="#aa"/><use transform="matrix(0.05,0,0,0.05,15.949999999999998,0)" xlink:href="#T"/><use transform="matrix(0.05,0,0,0.05,20.95,0)" xlink:href="#N"/></g><g id="q"><use transform="matrix(0.05,0,0,0.05,0,0)" xlink:href="#aj"/><use transform="matrix(0.05,0,0,0.05,6.3500000000000005,0)" xlink:href="#ak"/><use transform="matrix(0.05,0,0,0.05,11.350000000000001,0)" xlink:href="#am"/><use transform="matrix(0.05,0,0,0.05,21.35,0)" xlink:href="#L"/><use transform="matrix(0.05,0,0,0.05,27.3,0)" xlink:href="#V"/><use transform="matrix(0.05,0,0,0.05,37.3,0)" xlink:href="#W"/><use transform="matrix(0.05,0,0,0.05,41.25,0)" xlink:href="#N"/><use transform="matrix(0.05,0,0,0.05,51.25,0)" xlink:href="#O"/><use transform="matrix(0.05,0,0,0.05,60.25,0)" xlink:href="#T"/><use transform="matrix(0.05,0,0,0.05,65.25,0)" xlink:href="#aj"/></g><path d="M24 0v-261h32V0H24" id="ao"/><g id="r"><use transform="matrix(0.05,0,0,0.05,0,0)" xlink:href="#ak"/><use transform="matrix(0.05,0,0,0.05,5,0)" xlink:href="#O"/><use transform="matrix(0.05,0,0,0.05,14,0)" xlink:href="#Z"/><use transform="matrix(0.05,0,0,0.05,24,0)" xlink:href="#ao"/><use transform="matrix(0.05,0,0,0.05,27.950000000000003,0)" xlink:href="#ao"/></g><g id="s"><use transform="matrix(0.05,0,0,0.05,0,0)" xlink:href="#am"/><use transform="matrix(0.05,0,0,0.05,10,0)" xlink:href="#L"/><use transform="matrix(0.05,0,0,0.05,15.949999999999998,0)" xlink:href="#V"/><use transform="matrix(0.05,0,0,0.05,25.950000000000003,0)" xlink:href="#W"/><use transform="matrix(0.05,0,0,0.05,29.899999999999995,0)" xlink:href="#N"/><use transform="matrix(0.05,0,0,0.05,39.9,0)" xlink:href="#O"/><use transform="matrix(0.05,0,0,0.05,48.9,0)" xlink:href="#T"/></g><g id="t"><use transform="matrix(0.05,0,0,0.05,0,0)" xlink:href="#am"/><use transform="matrix(0.05,0,0,0.05,10,0)" xlink:href="#Z"/><use transform="matrix(0.05,0,0,0.05,20,0)" xlink:href="#L"/><use transform="matrix(0.05,0,0,0.05,25.950000000000003,0)" xlink:href="#Q"/><use transform="matrix(0.05,0,0,0.05,34.95,0)" xlink:href="#N"/><use transform="matrix(0.05,0,0,0.05,44.95,0)" xlink:href="#L"/></g><g id="u"><use transform="matrix(0.05,0,0,0.05,0,0)" xlink:href="#U"/><use transform="matrix(0.05,0,0,0.05,12,0)" xlink:href="#L"/><use transform="matrix(0.05,0,0,0.05,17.95,0)" xlink:href="#V"/><use transform="matrix(0.05,0,0,0.05,27.950000000000003,0)" xlink:href="#W"/><use transform="matrix(0.05,0,0,0.05,31.899999999999995,0)" xlink:href="#N"/><use transform="matrix(0.05,0,0,0.05,41.9,0)" xlink:href="#O"/><use transform="matrix(0.05,0,0,0.05,50.9,0)" xlink:href="#T"/></g><g id="v"><use transform="matrix(0.05,0,0,0.05,0,0)" xlink:href="#af"/><use transform="matrix(0.05,0,0,0.05,12.950000000000001,0)" xlink:href="#Z"/><use transform="matrix(0.05,0,0,0.05,22.950000000000003,0)" xlink:href="#S"/><use transform="matrix(0.05,0,0,0.05,32.95,0)" xlink:href="#ad"/><use transform="matrix(0.05,0,0,0.05,42.95,0)" xlink:href="#N"/><use transform="matrix(0.05,0,0,0.05,52.95,0)" xlink:href="#ao"/><use transform="matrix(0.05,0,0,0.05,56.900000000000006,0)" xlink:href="#N"/><use transform="matrix(0.05,0,0,0.05,66.9,0)" xlink:href="#L"/></g><path d="M233-177c-1 41-23 64-60 70L243 0h-38l-65-103H63V0H30v-248c88 3 205-21 203 71zM63-129c60-2 137 13 137-47 0-61-80-42-137-45v92" id="ap"/><g id="w"><use transform="matrix(0.05,0,0,0.05,0,0)" xlink:href="#ap"/><use transform="matrix(0.05,0,0,0.05,12.950000000000001,0)" xlink:href="#N"/><use transform="matrix(0.05,0,0,0.05,22.950000000000003,0)" xlink:href="#S"/><use transform="matrix(0.05,0,0,0.05,32.95,0)" xlink:href="#ad"/><use transform="matrix(0.05,0,0,0.05,42.95,0)" xlink:href="#N"/><use transform="matrix(0.05,0,0,0.05,52.95,0)" xlink:href="#L"/></g><path d="M160-131c35 5 61 23 61 61C221 17 115-2 30 0v-248c76 3 177-17 177 60 0 33-19 50-47 57zm-97-11c50-1 110 9 110-42 0-47-63-36-110-37v79zm0 115c55-2 124 14 124-45 0-56-70-42-124-44v89" id="aq"/><g id="x"><use transform="matrix(0.05,0,0,0.05,0,0)" xlink:href="#aq"/><use transform="matrix(0.05,0,0,0.05,12,0)" xlink:href="#ao"/><use transform="matrix(0.05,0,0,0.05,15.949999999999998,0)" xlink:href="#V"/><use transform="matrix(0.05,0,0,0.05,25.950000000000003,0)" xlink:href="#Y"/></g><path d="M80-196l47-18 7 23-49 13 32 44-20 13-27-46-27 45-21-12 33-44-49-13 8-23 47 19-2-53h23" id="ar"/><g id="y"><use transform="matrix(0.05,0,0,0.05,0,0)" xlink:href="#aj"/><use transform="matrix(0.05,0,0,0.05,6.3500000000000005,0)" xlink:href="#ak"/><use transform="matrix(0.05,0,0,0.05,11.350000000000001,0)" xlink:href="#ar"/><use transform="matrix(0.05,0,0,0.05,18.35,0)" xlink:href="#aj"/></g><path d="M26 75v-336h71v23H56V52h41v23H26" id="as"/><g id="z"><use transform="matrix(0.05,0,0,0.05,0,0)" xlink:href="#as"/><use transform="matrix(0.05,0,0,0.05,5,0)" xlink:href="#S"/><use transform="matrix(0.05,0,0,0.05,15,0)" xlink:href="#V"/><use transform="matrix(0.05,0,0,0.05,25,0)" xlink:href="#T"/></g><use transform="matrix(0.05,0,0,0.05,0,0)" xlink:href="#Z" id="A"/><path d="M3 75V52h41v-290H3v-23h71V75H3" id="at"/><g id="B"><use transform="matrix(0.05,0,0,0.05,0,0)" xlink:href="#am"/><use transform="matrix(0.05,0,0,0.05,10,0)" xlink:href="#L"/><use transform="matrix(0.05,0,0,0.05,15.949999999999998,0)" xlink:href="#V"/><use transform="matrix(0.05,0,0,0.05,25.950000000000003,0)" xlink:href="#W"/><use transform="matrix(0.05,0,0,0.05,29.899999999999995,0)" xlink:href="#N"/><use transform="matrix(0.05,0,0,0.05,39.9,0)" xlink:href="#O"/><use transform="matrix(0.05,0,0,0.05,48.9,0)" xlink:href="#T"/><use transform="matrix(0.05,0,0,0.05,53.900000000000006,0)" xlink:href="#at"/></g><g id="C"><use transform="matrix(0.05,0,0,0.05,0,0)" xlink:href="#ak"/><use transform="matrix(0.05,0,0,0.05,5,0)" xlink:href="#L"/><use transform="matrix(0.05,0,0,0.05,10.95,0)" xlink:href="#N"/><use transform="matrix(0.05,0,0,0.05,20.95,0)" xlink:href="#S"/><use transform="matrix(0.05,0,0,0.05,30.950000000000003,0)" xlink:href="#ad"/><use transform="matrix(0.05,0,0,0.05,40.95,0)" xlink:href="#N"/><use transform="matrix(0.05,0,0,0.05,50.95,0)" xlink:href="#L"/></g><path d="M115-194c53 0 69 39 70 98 0 66-23 100-70 100C84 3 66-7 56-30L54 0H23l1-261h32v101c10-23 28-34 59-34zm-8 174c40 0 45-34 45-75 0-40-5-75-45-74-42 0-51 32-51 76 0 43 10 73 51 73" id="au"/><g id="D"><use transform="matrix(0.05,0,0,0.05,0,0)" xlink:href="#au"/><use transform="matrix(0.05,0,0,0.05,10,0)" xlink:href="#ao"/><use transform="matrix(0.05,0,0,0.05,13.949999999999998,0)" xlink:href="#V"/><use transform="matrix(0.05,0,0,0.05,23.95,0)" xlink:href="#Y"/></g><path d="M179-190L93 31C79 59 56 82 12 73V49c39 6 53-20 64-50L1-190h34L92-34l54-156h33" id="av"/><g id="E"><use transform="matrix(0.05,0,0,0.05,0,0)" xlink:href="#S"/><use transform="matrix(0.05,0,0,0.05,10,0)" xlink:href="#V"/><use transform="matrix(0.05,0,0,0.05,20,0)" xlink:href="#L"/><use transform="matrix(0.05,0,0,0.05,25.950000000000003,0)" xlink:href="#al"/><use transform="matrix(0.05,0,0,0.05,40.9,0)" xlink:href="#Z"/><use transform="matrix(0.05,0,0,0.05,50.9,0)" xlink:href="#ao"/><use transform="matrix(0.05,0,0,0.05,54.85,0)" xlink:href="#ao"/><use transform="matrix(0.05,0,0,0.05,58.800000000000004,0)" xlink:href="#av"/></g><g id="F"><use transform="matrix(0.05,0,0,0.05,0,0)" xlink:href="#ac"/><use transform="matrix(0.05,0,0,0.05,12.950000000000001,0)" xlink:href="#V"/><use transform="matrix(0.05,0,0,0.05,22.950000000000003,0)" xlink:href="#ad"/><use transform="matrix(0.05,0,0,0.05,32.95,0)" xlink:href="#N"/></g><g id="G"><use transform="matrix(0.05,0,0,0.05,0,0)" xlink:href="#an"/><use transform="matrix(0.05,0,0,0.05,12,0)" xlink:href="#am"/><use transform="matrix(0.05,0,0,0.05,22,0)" xlink:href="#am"/><use transform="matrix(0.05,0,0,0.05,32,0)" xlink:href="#ao"/><use transform="matrix(0.05,0,0,0.05,35.95,0)" xlink:href="#aa"/><use transform="matrix(0.05,0,0,0.05,39.900000000000006,0)" xlink:href="#O"/><use transform="matrix(0.05,0,0,0.05,48.900000000000006,0)" xlink:href="#Z"/><use transform="matrix(0.05,0,0,0.05,58.900000000000006,0)" xlink:href="#T"/><use transform="matrix(0.05,0,0,0.05,63.900000000000006,0)" xlink:href="#aa"/><use transform="matrix(0.05,0,0,0.05,67.85000000000001,0)" xlink:href="#V"/><use transform="matrix(0.05,0,0,0.05,77.85000000000001,0)" xlink:href="#S"/></g><g id="H"><use transform="matrix(0.05,0,0,0.05,0,0)" xlink:href="#ae"/><use transform="matrix(0.05,0,0,0.05,12,0)" xlink:href="#T"/><use transform="matrix(0.05,0,0,0.05,17,0)" xlink:href="#Z"/><use transform="matrix(0.05,0,0,0.05,27,0)" xlink:href="#T"/><use transform="matrix(0.05,0,0,0.05,32,0)" xlink:href="#aa"/><use transform="matrix(0.05,0,0,0.05,35.95,0)" xlink:href="#O"/></g><path d="M240 0l2-218c-23 76-54 145-80 218h-23L58-218 59 0H30v-248h44l77 211c21-75 51-140 76-211h43V0h-30" id="aw"/><path d="M30 0v-248h33v221h125V0H30" id="ax"/><g id="I"><use transform="matrix(0.05,0,0,0.05,0,0)" xlink:href="#af"/><use transform="matrix(0.05,0,0,0.05,12.950000000000001,0)" xlink:href="#M"/><use transform="matrix(0.05,0,0,0.05,23.900000000000002,0)" xlink:href="#aw"/><use transform="matrix(0.05,0,0,0.05,38.85,0)" xlink:href="#ax"/></g><g id="J"><use transform="matrix(0.05,0,0,0.05,0,0)" xlink:href="#U"/><use transform="matrix(0.05,0,0,0.05,12,0)" xlink:href="#af"/><use transform="matrix(0.05,0,0,0.05,24.950000000000003,0)" xlink:href="#U"/></g></defs></g></svg>